<?xml version="1.0" standalone="no"?>
<!DOCTYPE svg PUBLIC "-//W3C//DTD SVG 20010904//EN"
 "http://www.w3.org/TR/2001/REC-SVG-20010904/DTD/svg10.dtd">
<svg version="1.0" xmlns="http://www.w3.org/2000/svg"
 width="935.000000pt" height="931.000000pt" viewBox="0 0 935.000000 931.000000"
 preserveAspectRatio="xMidYMid meet">
<metadata>
Created by potrace 1.16, written by Peter Selinger 2001-2019
</metadata>
<g transform="translate(0.000000,931.000000) scale(0.100000,-0.100000)"
fill="#000000" stroke="none">
<path d="M4895 9186 c-23 -7 -50 -18 -60 -24 -17 -11 -16 -11 10 -5 28 6 29 5
15 -12 -8 -10 -10 -16 -4 -12 7 4 14 -2 17 -13 3 -11 1 -20 -4 -20 -5 0 -9 4
-9 8 0 5 -19 10 -42 11 -67 4 -87 7 -94 14 -17 17 -45 9 -170 -49 -16 -8 -47
-37 -68 -64 -21 -28 -46 -50 -55 -51 -9 0 -29 -2 -44 -4 -17 -2 -30 1 -33 9
-4 11 -12 11 -42 -1 -20 -7 -45 -16 -54 -19 -13 -5 -16 -15 -11 -49 l5 -44
-50 14 c-28 7 -53 11 -55 9 -2 -3 -14 -7 -26 -9 -11 -3 -31 -7 -43 -10 -13 -3
-24 -9 -26 -15 -2 -5 -11 -10 -20 -11 -11 0 -12 -2 -4 -6 18 -7 15 -23 -6 -23
-10 0 -26 -6 -37 -13 -11 -8 -40 -22 -65 -31 -95 -36 -134 -91 -143 -201 -1
-12 -9 -20 -21 -20 -11 0 -22 -7 -24 -15 -10 -31 -65 -90 -88 -96 -17 -4 -27
-15 -31 -35 -3 -15 -12 -30 -20 -33 -9 -4 -13 -13 -9 -23 4 -10 4 -15 1 -11
-9 9 -45 -29 -45 -46 0 -8 -6 -17 -12 -19 -7 -3 -5 -6 6 -6 18 -1 18 -2 1 -21
-10 -11 -25 -20 -34 -21 -19 -1 -131 -132 -131 -153 0 -8 -4 -18 -10 -21 -5
-3 -10 -17 -10 -29 0 -13 -7 -29 -14 -36 -8 -6 -20 -37 -26 -68 -7 -31 -16
-66 -21 -77 -19 -43 -37 -103 -33 -108 3 -3 -6 -23 -20 -46 -14 -22 -26 -44
-26 -48 0 -4 -16 -23 -34 -43 -31 -31 -54 -69 -119 -195 -35 -68 -67 -168 -67
-209 0 -24 -7 -63 -15 -86 -8 -23 -15 -55 -15 -70 0 -15 -9 -53 -20 -86 -12
-32 -23 -86 -24 -119 -2 -33 -8 -114 -12 -180 -5 -66 -8 -169 -7 -230 3 -222
10 -406 17 -412 3 -3 6 9 7 28 0 19 2 41 3 49 2 8 6 67 10 130 12 209 22 297
41 385 8 33 17 82 20 109 3 27 10 55 16 63 6 7 9 22 6 33 -3 11 -1 20 5 20 5
0 6 5 3 10 -3 6 -3 15 1 22 7 11 12 35 18 83 4 35 18 80 30 94 6 8 11 21 11
30 1 27 28 101 37 101 4 0 8 8 8 18 0 11 9 27 20 37 11 10 17 22 14 26 -3 5 0
9 5 9 6 0 10 3 9 8 -6 20 80 161 160 262 19 25 86 95 148 157 92 91 119 112
146 115 21 2 33 8 33 18 0 9 10 15 26 15 14 0 40 12 58 28 18 15 43 30 57 33
13 3 21 10 18 15 -3 5 6 9 20 9 14 0 26 5 26 11 0 7 12 10 29 7 17 -2 28 -1
25 4 -7 11 3 10 26 -2 16 -8 18 -8 14 5 -6 14 6 20 29 16 4 -1 16 3 27 9 12 7
20 6 22 -1 2 -7 12 -7 29 -1 16 6 31 7 42 1 13 -8 15 -6 10 7 -5 13 -3 16 10
11 12 -4 14 -2 10 10 -4 11 -2 14 8 11 8 -3 19 1 24 7 7 9 20 10 45 3 l35 -10
-30 -14 -30 -13 30 6 c17 3 39 9 50 13 11 4 26 5 34 2 8 -3 11 0 7 7 -4 6 -14
11 -23 11 -9 0 -14 3 -10 6 3 4 20 1 38 -5 20 -7 36 -8 43 -2 14 12 68 4 115
-15 40 -17 44 -17 36 -4 -4 6 18 1 47 -11 29 -11 60 -22 68 -24 8 -2 28 -8 43
-14 38 -15 47 -13 18 3 -23 13 -23 13 -2 19 11 3 19 2 16 -2 -2 -4 12 -15 31
-25 20 -9 33 -12 29 -6 -9 15 29 12 51 -5 28 -21 35 -18 28 13 -4 20 -3 23 4
13 6 -8 16 -16 24 -17 7 -2 24 -6 38 -9 l25 -7 -24 21 c-26 24 -15 29 15 6 24
-18 38 -19 28 -2 -5 8 -2 8 9 -2 12 -9 17 -10 17 -2 0 7 5 9 11 5 6 -3 15 -1
19 7 7 10 12 10 23 0 22 -17 29 9 9 32 -12 14 -13 17 -1 17 11 0 12 2 1 9 -10
6 -9 10 7 14 12 3 19 2 16 -3 -3 -4 2 -10 10 -14 8 -3 15 -1 15 5 0 6 7 8 16
5 15 -6 15 -4 3 10 -13 16 -12 16 9 5 12 -6 22 -16 22 -21 0 -6 5 -10 11 -10
5 0 7 5 4 10 -3 6 -1 10 5 10 7 0 10 7 6 18 -5 13 -2 13 12 -4 9 -11 23 -19
30 -16 6 2 12 -1 12 -7 0 -6 7 -11 15 -11 8 0 15 4 15 9 0 5 10 7 23 5 12 -2
16 -2 10 2 -7 3 -13 10 -13 16 0 6 8 4 18 -5 20 -18 37 -23 28 -8 -3 5 1 14 9
21 11 9 20 8 44 -9 37 -27 50 -27 26 -1 -17 18 -17 20 -1 20 9 0 28 -7 41 -16
15 -10 25 -12 25 -5 0 17 67 -1 83 -23 5 -7 10 -6 17 4 8 13 10 13 10 1 0 -11
4 -9 14 5 14 18 15 18 21 2 4 -10 11 -18 16 -18 5 0 9 8 9 18 1 16 1 16 14 0
7 -10 18 -18 25 -18 6 0 15 -8 18 -17 6 -15 7 -15 14 3 7 18 8 18 8 0 1 -12 6
-16 17 -12 9 4 22 2 28 -3 7 -6 27 -13 46 -16 19 -3 37 -11 41 -17 4 -7 8 -6
11 2 3 9 9 8 21 -4 9 -10 15 -22 12 -27 -4 -5 1 -9 10 -9 9 0 14 4 10 9 -3 5
-1 12 5 16 5 3 10 -1 10 -10 0 -11 5 -15 14 -12 8 3 17 0 19 -7 3 -7 18 -16
35 -19 18 -4 34 -16 43 -34 18 -34 39 -41 46 -13 4 16 8 18 19 9 9 -7 12 -20
8 -32 -5 -15 -3 -19 9 -14 11 4 14 0 10 -16 -4 -16 -2 -18 5 -8 10 14 36 6 27
-9 -3 -5 5 -18 17 -29 14 -14 24 -17 29 -10 4 7 8 5 12 -5 4 -9 2 -16 -3 -16
-16 0 -11 -27 6 -34 10 -4 22 1 30 11 13 17 14 17 8 1 -3 -10 -3 -26 1 -35 4
-10 9 -31 11 -47 3 -17 9 -33 15 -37 7 -4 4 -9 -10 -14 -11 -3 -25 -3 -31 0
-6 4 -10 -5 -10 -19 0 -23 5 -28 26 -25 8 1 24 -22 24 -34 0 -5 -9 -5 -20 -2
-22 7 -26 -5 -8 -23 9 -9 9 -12 -2 -12 -11 0 -11 -3 -2 -12 7 -7 15 -8 24 -1
9 7 19 4 32 -10 16 -17 17 -19 3 -14 -9 3 -17 2 -17 -2 0 -5 7 -11 15 -15 8
-3 15 -10 15 -16 0 -6 -4 -8 -10 -5 -5 3 -10 -2 -10 -11 0 -15 -4 -14 -27 7
l-26 24 19 -28 c14 -20 25 -26 44 -23 l25 4 -23 -18 c-22 -18 -22 -19 -3 -29
14 -8 21 -8 24 2 4 7 6 8 6 1 1 -6 -6 -17 -13 -24 -12 -9 -13 -18 -5 -38 8
-22 8 -25 -2 -14 -16 15 -29 16 -29 1 0 -5 4 -8 9 -5 10 6 22 -44 14 -57 -2
-4 -13 -5 -24 -2 -10 4 -19 3 -19 -2 0 -13 40 -34 50 -28 6 4 10 1 10 -4 0 -6
7 -11 15 -11 13 0 13 -2 3 -14 -10 -10 -15 -11 -21 -2 -6 7 -7 6 -4 -4 2 -8
12 -15 23 -15 14 0 19 -7 20 -27 1 -18 -3 -25 -13 -21 -7 3 -13 0 -13 -6 0 -6
6 -11 13 -11 9 0 9 -2 0 -8 -16 -10 -18 -33 -5 -64 14 -35 26 -36 20 -3 -4 16
-1 22 6 17 6 -4 20 -7 31 -7 16 0 20 -7 20 -30 0 -20 6 -31 18 -33 11 -2 17 3
17 15 1 17 1 17 14 0 11 -14 15 -15 19 -5 4 8 6 7 6 -4 1 -10 -6 -18 -14 -18
-8 0 -15 -4 -15 -10 0 -5 7 -10 15 -10 14 0 17 -4 19 -32 1 -7 6 -16 11 -20 6
-4 2 -8 -7 -8 -10 0 -18 7 -18 15 0 14 -34 55 -45 55 -13 0 -3 -27 15 -38 12
-7 18 -18 14 -23 -4 -6 -1 -15 7 -19 15 -10 21 -40 8 -40 -5 0 -9 -10 -8 -22
0 -13 3 -18 5 -11 3 7 12 9 21 6 12 -5 9 -9 -13 -20 -29 -13 -29 -13 -3 -10
23 3 25 2 15 -19 -8 -17 -14 -20 -23 -12 -10 8 -13 6 -13 -6 0 -10 4 -15 8
-12 4 2 14 1 22 -4 11 -7 11 -11 1 -24 -11 -13 -17 -14 -30 -4 -14 11 -14 10
0 -6 14 -15 21 -16 38 -7 17 10 20 9 15 -4 -4 -8 -10 -15 -15 -15 -5 0 -9 -5
-9 -11 0 -6 7 -8 16 -5 9 3 12 2 9 -5 -4 -5 -15 -7 -26 -4 -13 4 -19 2 -19 -9
0 -19 17 -30 22 -14 3 8 6 7 10 -3 7 -18 -23 -22 -34 -5 -4 6 -10 7 -15 3 -7
-7 8 -21 32 -30 6 -3 6 -8 2 -13 -4 -4 -17 -3 -27 4 -11 7 -28 12 -37 11 -14
0 -12 -3 6 -10 14 -6 21 -15 17 -24 -3 -8 -1 -17 4 -20 6 -4 10 1 10 9 0 9 3
15 8 14 13 -4 62 34 56 43 -3 5 -2 9 3 8 22 -4 32 2 27 16 -5 13 -9 13 -22 3
-13 -11 -14 -10 -10 2 2 8 15 17 29 21 13 3 23 11 22 17 -2 7 4 9 14 5 14 -6
13 -9 -6 -24 -18 -15 -20 -21 -11 -36 16 -26 -3 -75 -26 -66 -14 5 -13 8 7 24
13 10 21 21 17 25 -12 11 -64 -39 -60 -58 2 -10 -2 -18 -8 -18 -7 0 -10 -7 -6
-15 3 -9 0 -15 -10 -15 -11 0 -14 6 -10 16 3 8 2 12 -4 9 -13 -8 -13 -65 0
-65 6 0 10 7 10 15 0 8 6 14 13 13 6 -2 11 5 11 14 -1 9 5 19 12 22 9 3 14 -2
14 -13 0 -28 -11 -52 -20 -46 -5 3 -11 -4 -15 -15 -6 -19 -7 -19 -24 -2 -10 9
-24 26 -30 37 -11 17 -12 17 -7 1 5 -14 2 -17 -10 -12 -12 5 -15 2 -10 -10 3
-8 6 -18 6 -20 0 -2 9 -4 19 -4 11 0 23 -9 26 -21 11 -34 -4 -35 -31 -4 -16
19 -23 23 -20 12 3 -10 6 -25 6 -33 0 -8 7 -14 15 -14 13 0 14 -4 3 -22 -10
-20 -13 -21 -16 -5 -2 9 -8 17 -13 17 -6 0 -8 18 -6 40 3 27 0 41 -10 44 -8 3
-11 10 -8 16 3 5 2 10 -4 10 -6 0 -9 -16 -8 -36 3 -49 -16 -53 -33 -8 l-15 36
-8 -34 c-9 -32 -10 -32 -20 -10 -16 36 -33 26 -28 -17 2 -7 -2 -10 -8 -6 -6 3
-11 13 -11 21 0 11 -4 12 -19 2 -15 -9 -23 -9 -35 1 -12 10 -16 11 -16 1 0
-10 -3 -10 -15 0 -8 6 -30 20 -50 30 -33 17 -44 15 -27 -6 4 -5 3 -6 -3 -1
-14 11 -47 9 -40 -3 3 -5 2 -10 -4 -10 -5 0 -13 5 -16 10 -8 13 -35 13 -35 -1
0 -5 5 -7 12 -3 7 5 8 3 4 -5 -5 -7 -14 -10 -22 -7 -14 5 -18 -5 -14 -33 1 -8
-14 -2 -37 16 -21 17 -49 34 -63 38 -24 7 -24 7 5 -20 22 -20 24 -25 10 -20
-26 10 -64 17 -47 9 6 -3 12 -10 12 -15 0 -4 -16 3 -36 16 -37 25 -72 35 -44
12 33 -26 17 -34 -23 -11 -54 31 -70 30 -32 -2 34 -28 8 -23 -37 8 -30 21 -42
23 -32 6 4 -7 -4 -1 -19 15 -14 15 -30 27 -34 27 -4 0 0 -7 11 -15 16 -12 16
-16 5 -27 -15 -14 -172 -23 -199 -12 -31 14 -126 12 -171 -2 -31 -10 -56 -27
-78 -54 -33 -41 -56 -90 -43 -90 5 0 14 16 22 35 8 20 23 43 33 53 20 17 20
16 4 -8 -17 -27 -41 -145 -33 -158 3 -5 -3 -22 -13 -39 -16 -25 -16 -30 -4
-30 9 0 22 16 30 34 7 19 18 31 23 28 6 -3 10 1 10 10 0 9 4 13 10 10 6 -4 7
1 3 11 -4 11 -2 15 4 11 13 -8 36 17 25 28 -4 5 -2 5 5 1 15 -9 -1 -49 -40
-96 -26 -32 -28 -33 -23 -10 4 18 1 15 -10 -9 -21 -46 -8 -52 27 -12 16 19 29
27 29 20 0 -11 2 -11 10 1 8 13 10 12 10 -3 0 -15 3 -16 22 -6 18 10 20 9 14
-6 -5 -15 -4 -16 9 -5 9 7 19 10 22 6 4 -4 1 -11 -7 -16 -8 -5 -12 -11 -9 -15
3 -3 28 11 55 32 27 20 42 28 33 17 -27 -31 -13 -47 24 -27 l32 16 -20 -23
c-11 -13 -14 -20 -7 -16 6 4 12 2 12 -4 0 -7 9 -5 22 4 15 10 33 14 53 10 22
-4 37 0 54 15 28 25 35 26 28 7 -5 -12 -1 -13 16 -6 12 4 21 13 19 20 -1 6 2
9 8 5 6 -3 8 -11 5 -16 -7 -10 31 -7 41 4 4 4 13 -1 21 -11 9 -11 12 -12 11
-3 -2 9 8 15 32 16 19 1 46 5 59 10 18 5 22 4 16 -6 -6 -9 -3 -11 9 -6 14 5
15 3 6 -13 -5 -10 -10 -20 -10 -22 0 -2 27 -3 59 -3 33 0 58 -2 56 -5 -2 -3
26 -6 63 -5 37 0 78 -5 92 -12 15 -8 19 -13 10 -14 -78 -4 -123 -25 -56 -26
25 -1 44 3 40 8 -3 5 9 9 25 9 17 0 31 -4 31 -10 0 -5 -10 -10 -22 -10 -19 0
-20 -2 -8 -10 12 -8 10 -10 -8 -10 -35 0 -15 -20 21 -21 27 0 29 -2 12 -9 -22
-9 -13 -13 23 -10 23 2 52 -15 52 -30 0 -5 -10 -6 -22 -4 -13 2 -7 -2 12 -8
19 -7 41 -18 49 -26 11 -11 9 -12 -13 -6 -15 3 -34 7 -44 8 -9 0 -22 8 -29 16
-9 12 -10 9 -6 -14 3 -15 15 -31 27 -36 16 -7 17 -9 4 -9 -11 -1 -15 -6 -12
-16 7 -18 -7 -20 -24 -3 -9 9 -12 9 -12 0 0 -8 -7 -9 -25 -2 -20 8 -25 6 -25
-6 0 -12 -4 -14 -12 -6 -7 5 -24 8 -38 7 -14 -1 -34 2 -45 8 -10 5 -28 11 -40
12 -35 4 -36 5 -29 17 4 6 3 8 -2 5 -5 -3 -43 1 -84 10 -48 10 -132 16 -235
16 -175 1 -257 -12 -355 -56 -65 -29 -117 -40 -125 -27 -3 5 -12 7 -20 3 -22
-8 -18 6 8 29 12 11 15 17 7 13 -12 -5 -12 -4 1 7 9 7 19 28 22 45 6 30 5 33
-18 31 -14 -1 -25 -5 -25 -9 0 -6 -45 -22 -45 -16 0 1 -11 -8 -24 -19 -19 -18
-93 -39 -117 -34 -4 1 -11 -4 -15 -12 -8 -11 -10 -11 -18 1 -11 17 -23 -1 -15
-23 3 -9 1 -16 -5 -16 -6 0 -11 -6 -11 -13 0 -7 -11 -25 -26 -40 -24 -26 -54
-104 -50 -130 1 -6 6 -19 11 -27 10 -16 23 -80 32 -150 3 -25 10 -48 16 -52 7
-4 7 -11 1 -20 -6 -7 -11 -26 -12 -43 -1 -16 -7 -32 -13 -33 -6 -3 -6 -8 1
-17 8 -9 8 -15 0 -20 -5 -3 -10 -11 -10 -16 0 -6 4 -8 8 -5 13 8 8 -127 -6
-151 -10 -19 -10 -28 3 -53 14 -27 13 -34 -6 -32 -3 1 -5 -13 -4 -31 2 -18 -2
-37 -7 -44 -5 -7 -7 -16 -4 -22 3 -5 2 -20 -3 -33 l-10 -23 0 23 c-1 32 -18
27 -23 -7 -2 -17 0 -29 5 -28 5 1 12 -4 14 -10 3 -7 -3 -13 -12 -13 -10 0 -13
-5 -9 -11 4 -7 8 -29 9 -50 3 -44 21 -73 42 -65 8 3 11 1 8 -4 -3 -6 0 -10 7
-10 7 0 20 -5 28 -10 13 -9 13 -11 0 -21 -13 -9 -13 -10 0 -6 8 2 14 13 12 23
-2 10 -5 30 -7 44 -2 13 -1 27 3 30 4 3 15 22 25 43 14 31 21 37 37 32 11 -4
20 -2 20 4 0 6 -5 11 -12 11 -6 0 -8 3 -5 6 13 13 34 -17 32 -45 -1 -17 2 -28
7 -25 15 10 8 -41 -9 -66 -10 -14 -16 -26 -15 -28 5 -4 -9 -62 -15 -62 -2 0
-11 7 -19 15 -9 8 -20 15 -26 15 -5 0 -8 -7 -4 -15 3 -8 1 -15 -4 -15 -6 0
-10 5 -10 11 0 6 -7 9 -14 6 -9 -4 -17 2 -21 14 -4 10 -11 19 -17 19 -7 0 -7
-5 1 -14 18 -21 3 -48 -23 -41 -15 5 -17 4 -7 -3 11 -8 9 -14 -8 -31 -11 -11
-21 -18 -22 -13 0 6 -16 -26 -24 -48 -12 -36 -27 -60 -35 -60 -6 0 -9 -4 -5
-9 3 -5 -12 -24 -32 -41 -29 -24 -46 -30 -70 -28 -18 2 -33 1 -33 -2 0 -3 -21
-4 -47 -1 -27 2 -46 1 -43 -2 4 -4 69 -14 103 -16 5 -1 6 -5 2 -10 -7 -13 33
-25 69 -22 17 2 26 -1 22 -7 -3 -6 2 -8 13 -5 13 3 20 -2 25 -21 4 -16 11 -23
20 -20 20 8 28 -11 31 -74 2 -49 1 -54 -11 -37 -8 10 -11 28 -8 38 4 13 2 17
-5 13 -6 -4 -11 -15 -11 -25 0 -10 -7 -24 -15 -31 -18 -15 -19 -7 -4 21 9 18
8 19 -9 8 -12 -7 -18 -20 -16 -33 3 -12 2 -15 -2 -8 -3 6 -10 10 -15 6 -5 -3
-2 -18 6 -33 14 -29 14 -29 -9 -18 -14 7 -22 15 -20 19 8 13 -7 49 -17 43 -14
-9 -11 -42 6 -58 8 -8 11 -18 7 -22 -4 -5 1 -5 10 -2 9 3 22 -1 30 -10 7 -9
28 -22 46 -30 18 -7 31 -17 28 -21 -2 -4 2 -16 10 -26 13 -18 15 -18 39 -2 23
15 27 15 41 1 13 -12 19 -13 30 -4 8 6 14 8 14 3 0 -5 23 -9 52 -8 29 1 58 -4
64 -11 8 -7 30 -10 57 -8 35 4 46 1 51 -12 11 -30 -3 -34 -94 -29 -55 3 -91 1
-95 -6 -3 -5 -1 -10 4 -10 6 0 11 -3 11 -7 0 -5 -62 -9 -137 -10 -75 -2 -140
-6 -144 -10 -5 -5 47 -8 114 -9 222 -2 244 -4 255 -28 9 -17 11 -18 11 -3 1
18 21 24 21 6 0 -6 7 -9 15 -5 9 3 15 0 15 -9 0 -8 5 -15 11 -15 6 0 8 9 4 20
l-7 21 36 -21 c20 -11 36 -15 36 -10 0 6 5 10 10 10 6 0 10 -6 10 -14 0 -9 8
-12 25 -8 15 2 25 0 25 -7 0 -6 5 -11 11 -11 6 0 8 7 5 16 -4 11 -2 15 8 11 8
-3 16 -1 18 5 3 8 10 8 25 0 16 -9 23 -9 26 1 4 9 8 8 16 -3 7 -9 14 -11 19
-5 10 14 35 13 45 -2 10 -16 58 -17 54 -2 -1 6 5 14 13 16 12 4 12 3 1 -5 -14
-10 -5 -19 19 -17 8 1 23 3 32 3 10 1 17 8 15 14 -1 7 8 14 20 16 13 2 35 17
50 33 32 34 41 35 59 12 12 -16 13 -14 4 11 -6 16 -8 31 -5 34 3 3 5 0 5 -7 0
-9 5 -9 20 -1 23 13 70 3 70 -15 0 -6 9 -22 19 -34 11 -12 17 -30 14 -41 -3
-11 0 -20 6 -20 11 0 15 17 11 59 -2 27 20 47 32 28 6 -9 8 -9 8 1 0 7 5 10
10 7 6 -4 10 -3 9 2 -1 4 3 22 10 38 14 33 7 145 -11 180 -18 35 -61 75 -80
75 -13 0 -17 -4 -12 -12 4 -7 -3 -4 -16 7 -21 18 -23 18 -17 2 6 -15 3 -17
-13 -12 -14 5 -20 2 -20 -9 0 -24 -58 -17 -76 9 -14 19 -15 18 -10 -10 l5 -30
-20 25 -20 25 7 -25 c6 -23 6 -23 -12 -6 -16 17 -19 17 -29 2 -12 -15 -25 -12
-25 6 0 5 5 6 12 2 7 -4 8 -3 4 4 -10 17 -26 15 -26 -4 0 -8 -4 -12 -10 -9
-16 10 -12 -7 8 -28 20 -24 4 -17 -47 21 l-33 25 7 -23 c6 -17 4 -21 -6 -14
-8 4 -26 9 -40 10 -22 2 -26 -1 -21 -18 3 -13 -11 -3 -42 29 -26 26 -43 38
-37 26 7 -14 8 -24 1 -28 -5 -3 -10 2 -11 12 0 16 -1 16 -9 -2 -5 -11 -9 -14
-9 -7 -1 6 -6 12 -12 12 -7 0 -18 8 -25 18 -8 10 -13 12 -14 5 0 -7 -6 -10
-14 -7 -8 3 -12 12 -9 20 3 8 0 14 -6 14 -6 0 -11 -4 -11 -10 0 -5 -7 -10 -16
-10 -10 0 -14 6 -11 14 3 8 -1 17 -9 20 -11 4 -13 13 -9 28 4 13 8 28 9 33 0
6 9 13 20 18 11 4 16 13 12 22 -3 8 -1 15 5 15 6 0 7 5 4 10 -3 6 -2 10 3 10
12 0 37 105 36 155 0 22 -3 60 -8 85 -4 25 -10 61 -11 80 -6 54 -10 75 -15 80
-11 11 -55 105 -53 112 2 4 -4 8 -12 8 -9 0 -27 24 -41 55 -14 30 -29 54 -33
53 -19 -2 -24 4 -11 12 13 9 12 12 -5 26 -19 14 -19 16 -2 25 12 7 16 17 11
31 -4 15 -3 18 6 13 8 -5 11 -3 8 6 -3 8 1 19 7 24 7 6 16 30 19 54 6 39 5 43
-9 31 -13 -11 -15 -9 -17 11 -4 64 -5 77 -10 85 -3 5 1 15 9 23 13 12 14 11 9
-6 -5 -17 -2 -20 29 -20 37 0 42 6 23 25 -10 10 -10 14 0 21 15 9 0 61 -18 61
-6 0 -8 5 -5 10 3 6 3 10 -2 10 -11 0 -33 50 -33 76 0 13 5 26 12 30 7 4 8 3
4 -4 -9 -15 6 -16 21 -1 6 6 38 12 70 14 76 2 83 4 82 13 -3 20 2 25 12 12 8
-12 9 -11 5 5 -7 27 29 68 84 95 25 12 52 28 60 36 8 7 34 17 56 22 l41 9 -9
-41 c-10 -42 -4 -91 14 -131 12 -27 47 -45 88 -45 16 0 32 -5 35 -11 4 -6 22
-8 44 -4 67 11 116 15 104 9 -19 -8 -16 -20 9 -43 21 -20 44 -19 32 1 -4 6 0
14 7 19 11 7 9 10 -8 15 -13 4 -20 11 -17 16 3 5 12 7 20 4 8 -3 13 0 11 6 -1
6 10 14 26 19 15 4 27 3 27 -2 0 -5 -5 -9 -11 -9 -5 0 -8 -4 -5 -9 3 -5 -2 -8
-11 -7 -9 0 -18 -5 -21 -13 -3 -9 2 -11 19 -7 13 3 18 3 11 0 -6 -3 -10 -10
-7 -14 3 -5 0 -12 -6 -16 -8 -4 -9 -3 -5 4 4 7 2 12 -4 12 -7 0 -10 -6 -7 -12
2 -8 17 -12 35 -10 20 1 32 -3 32 -10 0 -9 4 -8 11 2 9 12 10 12 5 -3 -3 -10
-6 -21 -6 -24 0 -4 -9 2 -20 12 -12 11 -20 13 -20 6 0 -7 -4 -9 -10 -6 -6 4
-7 -1 -3 -11 4 -11 8 -13 11 -6 2 7 8 12 14 12 6 0 8 -7 4 -15 -3 -8 -2 -15 2
-15 4 0 8 -9 9 -20 2 -21 -2 -23 -87 -40 -41 -8 -37 -8 37 -8 46 1 106 5 135
10 29 5 60 11 69 12 9 1 29 10 44 20 15 10 24 13 21 7 -4 -6 0 -11 8 -11 9 0
16 5 16 10 0 6 11 10 25 10 18 0 25 5 25 19 0 20 18 31 51 31 11 0 19 7 19 18
0 12 3 13 8 5 11 -17 39 16 34 39 -2 12 5 19 22 24 29 7 35 23 9 20 -10 0 -18
6 -18 14 0 8 6 14 14 12 14 -3 13 18 -4 63 -5 16 -5 17 4 5 10 -13 15 -8 12
13 -2 12 26 8 38 -7 8 -10 9 -16 1 -21 -6 -3 -7 -12 -3 -18 4 -7 6 -20 5 -29
-2 -10 2 -19 7 -19 6 -1 16 -3 21 -4 6 -1 15 -3 21 -4 5 0 8 -5 5 -10 -4 -5 7
-4 24 2 16 6 25 14 20 17 -5 3 4 14 21 24 22 13 28 21 20 29 -17 17 -13 25 12
30 l22 4 -22 2 c-13 0 -23 6 -23 12 0 5 4 8 9 5 5 -3 20 3 32 15 13 11 19 18
13 15 -7 -3 -27 1 -45 9 -29 13 -30 15 -9 13 16 -2 24 2 23 10 -2 6 2 12 7 12
6 0 10 -7 10 -15 0 -8 4 -15 10 -15 5 0 9 6 7 13 -1 7 6 11 18 9 20 -3 20 -2
1 13 -11 8 -34 15 -50 15 -25 1 -28 2 -14 10 11 7 26 7 43 0 15 -6 31 -8 36
-4 5 3 9 -2 9 -10 0 -9 5 -16 10 -16 6 0 10 5 10 10 0 6 4 10 10 10 5 0 7 -7
4 -15 -4 -10 0 -15 12 -15 14 0 16 2 6 9 -8 4 -13 12 -12 17 1 5 -15 13 -34
18 -26 7 -36 15 -36 29 0 15 -5 18 -22 12 -26 -7 -88 -13 -88 -7 0 2 7 11 16
20 15 14 17 14 26 -1 7 -14 12 -14 22 -4 8 6 12 16 9 20 -2 4 6 17 19 27 l23
20 -30 -5 c-16 -3 -24 -2 -17 1 6 3 12 17 12 30 0 20 5 24 28 23 l27 -1 -25
-9 c-20 -7 -17 -8 16 -5 43 3 93 29 76 40 -6 3 -12 2 -14 -4 -2 -5 -9 -6 -17
-1 -11 7 -8 14 15 35 16 14 24 26 18 26 -7 0 -14 -7 -18 -15 -3 -8 -14 -15
-25 -15 -14 0 -18 -5 -14 -19 6 -24 -5 -30 -37 -20 -14 4 -19 7 -12 8 9 1 12
10 8 29 -3 15 -1 34 5 42 9 13 10 13 6 -2 -3 -9 -1 -19 6 -21 18 -6 47 4 41
14 -3 5 -10 7 -15 4 -5 -4 -9 1 -9 10 0 12 4 14 19 5 31 -16 36 -12 12 9 -13
11 -20 24 -17 30 4 5 2 12 -4 16 -6 3 -13 -1 -16 -9 -3 -9 -11 -16 -18 -16
-17 1 -48 48 -36 55 5 3 10 -2 10 -11 0 -16 2 -16 19 2 22 23 18 34 -9 27 -23
-6 -25 2 -5 37 10 18 10 28 2 38 -5 7 -6 12 -1 10 5 -2 10 1 11 7 1 5 12 13
25 18 18 6 20 10 8 17 -9 6 -16 6 -18 0 -5 -13 -32 -13 -32 -1 0 5 14 14 30
20 17 5 30 13 30 17 0 3 -7 3 -16 0 -13 -5 -15 -2 -11 14 5 18 1 22 -19 19 -4
0 -11 5 -16 13 -8 10 -9 10 -5 -2 2 -8 9 -14 15 -13 5 1 9 -9 8 -22 0 -14 -6
-23 -12 -21 -6 2 -16 0 -21 -5 -7 -7 -12 -5 -16 5 -3 8 0 21 7 28 17 18 9 38
-12 31 -9 -3 -14 -3 -11 1 4 4 16 8 28 11 11 2 31 11 43 21 20 14 20 15 3 9
-11 -4 -29 -10 -40 -12 -17 -5 -18 -3 -7 8 7 8 17 15 23 15 20 3 21 4 10 18
-8 10 -9 16 -1 21 6 4 7 12 1 24 -8 14 -6 17 9 16 10 -1 25 -7 33 -13 11 -10
17 -9 27 3 9 10 9 15 1 15 -6 0 -11 -5 -11 -11 0 -6 -7 -3 -16 5 -10 11 -13
23 -8 38 4 13 7 28 6 35 -2 6 5 9 16 7 13 -4 18 1 19 17 1 12 9 29 19 38 15
15 15 14 0 -16 -14 -28 -14 -32 0 -37 12 -4 15 -2 10 9 -3 8 -1 15 4 15 6 0
10 6 10 14 0 8 8 17 18 19 16 4 16 5 0 6 -10 0 -18 6 -18 12 0 5 5 7 10 4 6
-4 19 -1 28 7 16 12 16 11 2 -6 -14 -18 -13 -19 2 -13 10 3 20 2 23 -3 4 -6
-3 -10 -14 -10 -16 0 -21 -6 -21 -25 0 -22 2 -24 14 -13 8 7 12 16 9 20 -2 4
3 5 11 2 13 -5 12 -9 -4 -27 -11 -11 -17 -23 -14 -26 3 -3 11 2 18 11 10 14
15 15 26 5 9 -9 11 -9 6 0 -3 6 -3 14 2 17 4 2 9 -6 10 -19 1 -19 -2 -23 -16
-19 -9 3 -6 -2 8 -10 14 -8 33 -15 43 -16 9 0 17 -5 17 -11 0 -6 -9 -8 -21 -4
-20 7 -21 6 -2 -12 10 -11 24 -17 32 -15 10 4 12 1 6 -8 -6 -10 -4 -12 8 -7
10 3 17 3 18 -1 0 -4 3 -18 5 -32 2 -14 5 -31 6 -37 1 -7 6 -13 11 -13 5 0 7
-6 4 -14 -3 -7 1 -23 9 -35 8 -11 12 -21 7 -21 -4 0 -8 -15 -8 -34 0 -19 3
-32 7 -30 5 3 6 10 3 15 -4 5 -1 9 5 9 13 0 29 -40 23 -57 -3 -7 -1 -18 3 -25
5 -7 9 -16 10 -20 1 -5 3 -9 4 -10 1 -2 3 -17 5 -35 1 -18 5 -43 9 -57 5 -21
3 -24 -11 -19 -16 6 -16 5 -4 -10 7 -9 11 -24 7 -32 -3 -9 -2 -13 4 -10 9 6
12 2 14 -27 1 -7 4 -15 8 -18 9 -7 18 -71 8 -65 -4 3 -10 -9 -12 -25 -3 -17
-1 -30 3 -30 10 0 35 -82 31 -103 -2 -11 -9 -16 -18 -13 -19 7 -18 -4 1 -18 9
-6 17 -25 18 -41 1 -17 7 -34 12 -38 7 -6 6 -10 -2 -13 -7 -3 -9 -12 -6 -20 3
-7 9 -11 14 -8 11 6 12 -19 2 -30 -12 -12 -12 -35 1 -30 8 3 11 -9 11 -36 0
-22 -4 -40 -10 -40 -5 0 -3 -5 5 -11 8 -6 11 -12 5 -15 -6 -2 -10 -49 -9 -112
0 -59 -4 -113 -9 -119 -5 -7 -7 -20 -3 -28 3 -8 1 -26 -4 -40 -6 -16 -6 -25 0
-25 6 0 10 -7 10 -16 0 -8 -5 -12 -10 -9 -6 4 -10 3 -9 -2 4 -21 -2 -33 -17
-33 -8 0 -13 4 -10 8 3 5 -1 9 -8 9 -8 0 -11 -8 -8 -19 5 -22 -2 -23 -22 -2
-15 14 -16 13 -16 -6 0 -12 4 -19 9 -15 5 3 21 0 35 -7 25 -11 25 -12 10 -35
-11 -18 -13 -28 -4 -38 8 -10 7 -16 -7 -24 -12 -7 -14 -13 -7 -18 7 -5 10 -25
9 -45 -2 -21 1 -40 6 -43 5 -4 6 2 2 12 -6 16 -4 16 16 -2 l23 -20 -24 -6
c-12 -4 -18 -8 -13 -8 6 -1 2 -6 -7 -12 -9 -5 -15 -16 -12 -23 6 -15 -21 -46
-39 -46 -7 1 -2 9 11 19 26 22 28 31 7 31 -8 0 -15 5 -15 11 0 6 7 9 14 6 10
-4 13 -1 9 9 -10 26 -28 8 -25 -25 1 -17 -2 -31 -8 -31 -5 0 -10 -14 -10 -31
0 -17 4 -28 10 -24 6 3 10 -1 10 -9 0 -9 5 -16 10 -16 6 0 10 -8 10 -17 -1
-17 -2 -17 -15 1 -13 17 -41 14 -30 -4 3 -4 -4 -10 -14 -13 -16 -4 -21 2 -28
30 -8 34 -25 46 -31 21 -2 -9 0 -8 8 2 9 12 11 10 7 -12 -2 -16 0 -28 5 -28 5
0 8 -6 6 -12 -1 -7 4 -24 11 -36 12 -22 11 -23 -8 -17 -13 4 -21 2 -21 -5 0
-6 5 -8 10 -5 18 11 11 -17 -7 -31 -10 -7 -14 -16 -10 -20 4 -5 13 -2 18 6 8
11 12 12 16 3 2 -7 12 -13 21 -13 13 0 13 -3 4 -12 -10 -10 -15 -10 -21 1 -5
7 -14 10 -21 6 -8 -5 -7 -12 6 -26 9 -10 12 -19 6 -19 -6 0 -14 5 -17 10 -4 6
-11 8 -16 5 -5 -4 -9 -1 -9 6 0 7 -9 2 -19 -10 -18 -21 -20 -21 -30 -4 -6 11
-11 13 -11 5 0 -9 -7 -11 -22 -7 -16 4 -19 3 -9 -3 9 -7 10 -11 2 -17 -15 -9
-41 12 -42 34 0 12 -2 13 -6 2 -3 -7 -14 -22 -25 -33 -12 -12 -18 -28 -15 -41
3 -12 1 -31 -4 -42 -8 -17 -9 -16 -6 7 5 32 4 33 -16 14 -11 -12 -15 -11 -25
5 -7 11 -9 18 -5 17 16 -3 43 14 37 24 -4 6 -10 5 -15 -3 -7 -11 -9 -11 -9 -1
0 7 -4 10 -10 7 -5 -3 -10 3 -10 14 0 12 3 20 8 20 20 -3 30 3 37 24 12 36 14
127 4 127 -6 0 -7 -10 -4 -22 6 -18 5 -20 -5 -11 -13 12 -7 43 7 43 4 0 17 -7
27 -15 15 -11 16 -18 8 -28 -9 -10 -8 -17 1 -26 9 -9 9 -14 -2 -20 -7 -5 -10
-14 -7 -20 4 -6 2 -11 -4 -11 -6 0 -9 -4 -5 -10 3 -5 14 -1 25 10 16 16 18 25
10 46 -6 14 -8 29 -5 34 7 12 -5 41 -15 35 -4 -3 -11 2 -14 11 -5 13 -9 14
-20 5 -9 -8 -16 -8 -20 -2 -4 5 2 14 11 20 14 7 15 13 7 21 -15 15 5 72 23 66
7 -3 15 0 19 6 4 7 3 8 -4 4 -7 -4 -12 -2 -12 3 0 6 -3 10 -7 9 -5 -1 -18 3
-29 10 -12 6 -24 8 -28 5 -3 -3 -6 -2 -6 4 0 6 7 14 16 17 20 8 25 8 21 -1 -1
-5 2 -10 8 -13 5 -3 11 11 12 29 3 33 2 34 -12 15 -11 -14 -15 -16 -15 -4 0
12 -4 10 -15 -4 -13 -17 -15 -17 -15 -3 0 9 8 21 18 27 15 11 15 11 0 6 -13
-4 -19 3 -24 30 -3 19 -11 37 -17 41 -6 3 -7 1 -3 -5 4 -7 2 -12 -5 -12 -8 0
-6 -7 5 -19 16 -17 16 -19 -4 -24 -16 -4 -20 -2 -16 9 3 8 2 12 -4 9 -5 -3
-12 -26 -16 -52 -5 -36 -3 -48 9 -54 10 -6 13 -17 9 -31 -3 -14 -2 -19 6 -14
17 11 15 -9 -3 -24 -12 -10 -15 -10 -15 4 0 9 -4 16 -9 16 -15 0 -23 -33 -10
-41 7 -4 9 -15 5 -24 -4 -13 -2 -16 9 -12 8 4 17 2 21 -4 3 -5 14 -7 25 -4 27
9 44 -13 47 -62 2 -33 -1 -43 -13 -43 -8 0 -15 -5 -15 -11 0 -6 -6 -9 -13 -6
-8 3 -14 -1 -14 -8 0 -7 8 -10 17 -8 10 3 20 -3 24 -13 5 -13 3 -14 -6 -7 -14
11 -53 11 -64 0 -7 -6 18 -11 39 -8 12 2 8 -27 -5 -35 -7 -5 -8 -3 -3 6 5 9 4
11 -3 6 -7 -4 -12 -2 -12 5 0 7 -3 9 -6 6 -4 -4 -2 -13 4 -20 7 -8 9 -17 5
-21 -4 -4 0 -4 10 0 17 6 24 -10 8 -20 -4 -3 -6 -18 -3 -33 2 -16 1 -24 -4
-20 -4 4 -9 14 -10 21 -3 23 -38 69 -42 56 -2 -6 1 -17 7 -23 6 -6 11 -21 11
-33 0 -13 5 -26 10 -29 6 -3 10 -11 10 -18 0 -6 -7 -2 -15 9 -14 18 -14 18
-15 -6 0 -16 -3 -20 -8 -13 -4 7 -17 10 -28 7 -18 -5 -21 -12 -18 -47 2 -27 0
-37 -5 -28 -6 10 -11 4 -16 -20 -4 -19 -18 -44 -31 -57 -22 -23 -22 -25 -7
-57 10 -21 13 -40 8 -52 -8 -17 -8 -17 -12 0 -3 9 -11 17 -19 17 -11 0 -12 5
-6 16 10 18 4 64 -9 64 -5 0 -9 7 -9 15 0 8 6 15 13 15 8 0 7 3 -3 10 -10 6
-20 4 -31 -6 -8 -7 -21 -14 -29 -14 -9 0 -10 -3 -1 -14 9 -11 9 -15 0 -18 -6
-2 -11 -16 -11 -31 0 -34 -6 -34 -18 -2 -5 14 -15 25 -21 25 -8 0 -8 -4 0 -14
8 -9 9 -16 2 -21 -6 -3 -17 9 -24 28 -8 19 -22 34 -31 34 -9 0 -15 -5 -13 -11
3 -6 11 -10 18 -8 8 1 5 -5 -6 -14 -16 -13 -16 -15 -3 -11 20 7 33 -7 22 -24
-4 -8 -9 -7 -15 2 -6 10 -9 11 -9 2 0 -7 -4 -13 -10 -13 -5 0 -10 7 -10 15 0
13 -3 13 -14 3 -16 -16 -1 -46 23 -44 18 1 25 -23 12 -43 -7 -10 -13 -11 -30
-2 -14 8 -21 8 -21 1 0 -5 4 -10 8 -10 8 0 32 -43 32 -55 0 -15 -50 22 -53 39
-3 16 -5 15 -6 -6 0 -16 4 -28 10 -28 7 0 9 -10 5 -26 -4 -15 -3 -23 3 -20 5
3 7 -3 4 -14 -7 -27 -23 -25 -24 3 -1 15 -4 12 -9 -12 -5 -19 -6 -41 -3 -50 4
-14 4 -14 -6 -1 -8 11 -11 11 -11 2 0 -7 11 -24 25 -37 23 -24 23 -27 10 -65
-8 -24 -10 -42 -4 -45 5 -4 10 -3 11 2 0 4 4 -12 7 -37 3 -25 2 -48 -3 -52 -6
-4 -4 -13 3 -22 15 -18 4 -21 -19 -6 -12 8 -13 13 -2 30 7 12 8 20 2 20 -5 0
-9 3 -9 8 1 4 0 16 -1 27 -1 17 -4 16 -14 -8 -7 -15 -15 -25 -17 -22 -3 3 -5
-8 -4 -25 1 -16 -2 -30 -6 -30 -5 0 -6 -7 -3 -15 4 -9 0 -15 -10 -15 -9 0 -16
-5 -16 -11 0 -5 -4 -7 -10 -4 -5 3 -10 -3 -10 -14 0 -12 -4 -21 -10 -21 -5 0
-10 9 -10 19 0 33 -15 32 -35 -1 -13 -22 -15 -33 -7 -36 19 -6 14 -22 -7 -22
-11 0 -23 -6 -28 -12 -5 -9 -9 -3 -13 17 -4 26 -9 29 -36 29 -28 -1 -30 1 -26
25 4 20 6 22 11 8 6 -16 7 -15 18 2 11 17 8 19 -18 23 -25 4 -28 2 -24 -14 4
-9 2 -26 -4 -35 -8 -14 -11 -9 -12 27 l-1 45 -10 -32 c-6 -18 -15 -33 -20 -33
-5 0 -7 -10 -3 -22 6 -22 6 -22 -9 -4 -13 16 -16 16 -16 5 0 -29 -30 -16 -66
27 -20 23 -43 45 -51 49 -17 6 -13 -1 32 -55 14 -18 15 -21 3 -11 -10 7 -18
10 -18 5 0 -5 -10 4 -23 19 -15 20 -27 26 -40 22 -25 -10 -21 -35 17 -94 5 -8
10 -27 10 -42 1 -31 -15 -27 -47 11 -15 18 -21 19 -34 9 -10 -9 -11 -15 -4
-17 19 -6 12 -22 -11 -23 -13 0 -17 -3 -10 -6 21 -8 13 -21 -10 -15 -15 4 -19
2 -13 -7 6 -10 2 -11 -15 -6 -14 4 -20 3 -16 -3 3 -5 -5 -13 -18 -16 -18 -4
-23 -11 -19 -26 3 -11 9 -20 14 -20 5 0 9 -7 9 -16 0 -8 -4 -13 -9 -9 -5 3
-11 -3 -13 -12 -3 -16 -7 -14 -31 9 -14 15 -29 23 -32 19 -2 -5 4 -16 15 -26
11 -10 17 -21 15 -26 -3 -4 -20 6 -37 22 -38 34 -52 37 -43 9 7 -23 -13 -28
-33 -8 -16 16 -15 3 0 -22 10 -16 10 -22 -1 -32 -12 -11 -13 -10 -8 4 3 10 0
21 -7 25 -7 5 -18 17 -25 28 -11 18 -11 18 -5 -5 3 -14 10 -29 15 -35 5 -5 9
-14 9 -20 0 -5 -5 -3 -10 5 -7 12 -10 12 -10 1 0 -7 -6 -11 -14 -8 -12 5 -12
2 0 -21 8 -15 14 -36 13 -47 0 -11 -3 -14 -6 -7 -3 7 -18 20 -35 28 -25 13
-32 14 -39 2 -7 -10 -9 -9 -9 3 0 9 -7 19 -15 23 -13 4 -13 2 -5 -14 13 -25
13 -43 -2 -34 -8 5 -9 0 -6 -14 4 -12 3 -22 -2 -22 -4 0 -11 15 -16 33 -7 30
-8 29 -12 -23 -3 -41 -6 -50 -12 -35 -7 15 -9 9 -10 -25 -1 -35 -3 -40 -10
-24 -11 27 -10 95 1 117 6 11 6 17 -1 17 -5 0 -11 -6 -11 -12 -1 -7 -5 1 -9
17 l-7 30 -8 -40 c-4 -22 -14 -49 -21 -60 -8 -11 -14 -24 -14 -30 0 -5 5 -3
10 5 6 9 10 10 10 3 0 -6 -4 -15 -10 -18 -5 -3 -10 -17 -10 -30 0 -13 -4 -27
-10 -30 -6 -4 -7 1 -3 11 5 12 3 15 -6 9 -10 -6 -11 -3 -2 13 14 26 14 35 0
26 -8 -5 -10 3 -7 24 2 17 1 29 -3 27 -4 -3 -10 -25 -13 -50 -4 -24 -11 -47
-16 -50 -11 -7 -7 62 5 90 8 17 7 18 -7 7 -10 -8 -19 -9 -22 -3 -4 5 -2 12 4
16 5 3 10 16 10 28 -1 21 -1 22 -12 2 -17 -31 -57 -67 -68 -60 -6 4 -3 16 6
31 9 13 12 24 6 24 -5 0 -12 -9 -15 -21 -3 -12 -10 -18 -16 -15 -5 3 -12 -7
-16 -24 -6 -28 -25 -43 -25 -19 0 6 -7 4 -15 -4 -17 -18 -15 -77 3 -77 7 0 12
-15 12 -40 0 -43 -23 -65 -52 -49 -12 6 -17 4 -21 -11 -8 -30 -27 -24 -27 8
-1 26 -1 26 -15 8 -17 -22 -20 -50 -6 -41 17 10 20 -9 5 -30 -14 -18 -14 -18
-14 3 0 12 -3 22 -7 22 -5 0 -9 13 -10 29 -2 29 21 60 35 47 3 -4 23 28 43 71
21 43 35 80 32 83 -3 3 -8 -1 -10 -8 -3 -6 -9 -9 -15 -6 -6 4 -8 -2 -3 -16 5
-15 3 -20 -3 -16 -6 3 -13 2 -17 -3 -3 -5 -14 -9 -24 -8 -16 1 -17 5 -8 37 6
19 17 43 26 53 16 19 23 57 10 57 -3 0 -9 -9 -12 -20 -3 -11 -10 -20 -16 -20
-16 0 -7 41 13 55 9 7 13 16 8 19 -6 3 -12 -1 -16 -9 -3 -8 -12 -15 -21 -15
-12 0 -14 -8 -10 -40 3 -23 1 -40 -5 -40 -10 0 -14 27 -11 63 1 9 -3 17 -9 17
-7 0 -8 6 -1 19 9 15 7 20 -9 24 -11 3 -21 -1 -24 -10 -4 -10 -2 -13 7 -10 10
4 13 -2 9 -19 -4 -21 -7 -23 -21 -12 -14 11 -14 11 -4 -2 13 -17 17 -143 4
-136 -4 3 -6 -7 -4 -22 3 -18 2 -23 -4 -14 -7 9 -13 2 -20 -23 -11 -33 -10
-37 12 -47 14 -6 21 -16 18 -24 -3 -8 -1 -14 5 -14 6 0 13 6 15 13 4 7 6 6 6
-4 1 -9 -8 -19 -20 -22 -15 -4 -19 -11 -15 -24 3 -10 1 -31 -4 -48 l-10 -30 4
31 c4 21 1 31 -9 31 -7 0 -13 -8 -12 -18 2 -26 -36 -90 -50 -84 -7 2 -13 0
-13 -5 0 -6 -4 -10 -10 -10 -5 0 -10 12 -10 26 0 14 4 23 9 20 5 -3 8 5 7 19
0 14 -5 25 -9 25 -5 0 -5 5 -2 10 3 6 1 10 -4 10 -6 0 -11 -7 -11 -16 0 -8 -6
-22 -14 -30 -17 -16 -30 -19 -21 -4 3 5 1 10 -5 10 -6 0 -10 6 -9 13 1 6 1 30
0 52 -1 29 -4 36 -10 25 -6 -8 -8 -17 -5 -22 2 -4 -4 -12 -15 -18 -27 -14 -34
2 -16 38 12 22 21 29 35 25 13 -4 20 0 20 10 0 8 2 30 5 48 l6 34 -13 -35 c-7
-19 -19 -36 -25 -36 -7 -1 -22 -2 -33 -3 -13 -1 -20 -8 -20 -20 0 -10 -7 -21
-15 -25 -8 -3 -15 -13 -15 -23 0 -16 -2 -16 -11 -3 -9 12 -10 11 -6 -6 2 -12
1 -28 -4 -35 -5 -8 -3 -16 3 -20 14 -9 20 -39 8 -39 -13 0 -28 23 -33 50 -4
24 -4 23 -12 -7 -4 -18 -13 -33 -20 -33 -9 0 -11 8 -8 23 4 15 2 19 -5 12 -5
-5 -12 -19 -15 -30 -3 -11 -5 -2 -6 20 -1 31 -4 37 -12 25 -8 -12 -10 -9 -6
13 7 46 -18 12 -37 -48 -8 -27 -15 -42 -15 -33 -1 9 -4 25 -7 35 -5 15 -4 15
5 3 9 -13 11 -13 11 2 0 9 -3 18 -7 21 -5 2 -3 2 4 1 7 -2 11 9 11 27 -1 19
-4 25 -9 18 -4 -7 -5 -18 -2 -24 4 -5 3 -7 -2 -3 -4 4 -15 2 -24 -4 -9 -7 -13
-8 -8 -3 4 4 0 17 -10 27 -11 12 -12 18 -3 18 6 0 10 6 7 14 -3 8 1 20 10 27
11 10 14 26 11 60 -5 50 9 73 49 81 12 2 19 13 20 33 2 26 2 27 -6 8 -6 -11
-23 -29 -40 -39 -17 -10 -31 -22 -31 -27 0 -5 -7 -7 -14 -4 -10 4 -13 1 -9 -9
3 -7 9 -14 14 -14 5 0 9 -7 9 -15 0 -9 -6 -12 -17 -9 -17 5 -17 5 -1 -8 12
-10 14 -18 6 -31 -5 -10 -13 -15 -19 -12 -5 4 -9 1 -9 -5 0 -6 -5 -8 -10 -5
-7 4 -7 13 0 25 13 24 19 120 8 120 -4 0 -8 5 -8 11 0 5 4 8 9 5 5 -3 11 8 13
26 4 24 3 28 -6 16 -6 -8 -19 -14 -29 -12 -25 3 -35 14 -14 14 10 0 14 5 11
15 -4 9 0 15 10 15 9 0 16 5 16 10 0 17 -34 -6 -49 -32 -6 -13 -21 -29 -32
-36 -17 -11 -19 -9 -19 16 0 15 5 33 12 40 6 6 9 14 7 17 -3 3 -24 -11 -47
-31 -23 -19 -42 -31 -42 -25 0 5 5 13 10 16 6 4 8 11 4 16 -3 5 -2 9 3 8 21
-4 33 2 33 15 0 8 12 24 26 35 15 12 22 21 17 21 -6 0 -20 -9 -33 -20 -30 -26
-34 -25 -15 4 14 22 15 24 1 22 -9 -1 -19 -6 -23 -11 -5 -4 -1 -5 7 0 8 5 12
4 8 0 -5 -5 -19 -9 -33 -11 -24 -3 -24 -2 -9 22 9 13 21 24 27 24 6 0 7 3 4 6
-4 4 -13 1 -21 -5 -8 -7 -20 -10 -26 -6 -6 4 -11 1 -9 -6 3 -29 -2 -38 -32
-53 -28 -14 -30 -14 -27 2 2 9 13 21 26 27 23 10 30 35 10 35 -9 0 -8 4 2 10
13 9 13 10 -1 10 -8 0 -21 -6 -28 -13 -11 -10 -13 -9 -9 3 3 8 14 16 26 18 12
2 22 8 22 13 0 9 -15 13 -34 10 -5 -1 -6 7 -3 19 4 17 1 19 -19 16 -13 -3 -29
-8 -36 -12 -7 -4 -5 2 5 13 14 16 15 22 5 30 -7 6 -21 9 -31 8 -15 -3 -13 1 7
20 35 33 33 38 -10 20 -32 -13 -35 -13 -24 0 15 18 -1 20 -19 3 -10 -11 -11
-10 -5 5 3 9 17 20 30 23 13 3 21 10 18 16 -3 5 0 16 7 25 12 14 10 15 -20 8
-31 -7 -33 -5 -28 14 3 11 1 21 -4 21 -5 0 -9 -11 -9 -23 0 -43 -66 -93 -77
-59 -3 7 4 12 19 12 13 0 28 8 35 18 10 17 8 18 -15 15 -15 -2 -22 -1 -15 3 7
3 9 12 6 20 -3 8 0 21 7 29 8 9 8 15 2 15 -6 0 -14 -9 -17 -20 -7 -21 -25 -28
-25 -10 0 6 5 10 10 10 6 0 10 6 10 14 0 8 7 17 16 20 22 8 26 8 19 -4 -3 -5
-1 -10 4 -10 6 0 11 9 11 20 0 11 5 20 12 20 6 0 9 3 6 6 -4 3 -18 -2 -32 -12
-15 -9 -29 -14 -33 -11 -3 4 -15 0 -27 -8 -28 -21 -57 -20 -30 0 19 15 19 15
-1 9 -19 -6 -19 -5 1 13 28 24 38 53 18 53 -12 0 -12 4 -4 20 13 24 -2 27 -24
5 -19 -19 -27 -19 -19 1 3 9 15 20 27 24 19 8 18 9 -7 9 -18 1 -26 5 -21 12 3
6 17 8 30 5 13 -4 24 -2 24 3 0 5 8 12 18 15 9 3 2 4 -15 2 -26 -2 -30 0 -22
11 8 9 8 13 0 13 -6 0 -11 5 -11 10 0 6 7 10 15 10 8 0 15 5 15 11 0 5 -4 8
-9 4 -5 -3 -12 -1 -16 5 -3 5 -1 10 5 10 6 0 10 6 8 13 -3 18 21 58 35 56 7
-1 30 6 52 15 40 18 73 25 135 27 48 2 119 -11 126 -23 4 -6 26 -7 58 -2 60 8
96 11 191 14 l70 3 -70 8 c-38 4 -96 5 -127 2 -47 -5 -65 -2 -100 17 -24 13
-55 30 -70 37 -33 17 -35 29 -8 38 42 13 54 58 35 129 -5 19 -4 31 5 36 9 6 9
12 -1 31 -7 13 -12 31 -11 39 2 10 -1 9 -9 -3 -6 -10 -8 -26 -4 -35 3 -9 3
-13 -1 -9 -4 4 -13 2 -20 -4 -8 -7 -14 -7 -19 0 -4 7 -15 5 -31 -5 -23 -16
-24 -15 -24 5 0 25 -7 26 -32 4 -10 -9 -18 -11 -18 -6 0 6 -9 13 -21 16 -15 4
-23 -1 -30 -21 -9 -24 -11 -25 -27 -8 -12 14 -14 20 -4 23 6 3 12 12 12 21 0
14 -2 14 -9 3 -7 -11 -9 -11 -13 0 -3 8 -5 -4 -6 -26 -1 -22 -9 -46 -18 -54
-9 -9 -14 -10 -10 -3 4 7 1 12 -8 12 -21 0 -20 8 4 48 11 17 17 32 14 32 -12
0 -59 -65 -56 -79 2 -12 0 -12 -8 2 -6 9 -15 15 -21 12 -5 -4 -9 -1 -9 5 0 6
-4 9 -9 5 -5 -3 -13 0 -17 6 -4 8 -3 9 4 5 8 -5 10 -1 5 10 -6 16 -8 15 -21
-4 -8 -12 -20 -22 -28 -22 -7 0 -16 -9 -19 -20 -4 -12 -11 -17 -18 -14 -9 5
-9 4 0 -6 8 -8 9 -20 2 -37 -8 -21 -7 -23 11 -13 16 9 20 8 20 -7 0 -10 3 -29
5 -43 3 -16 0 -12 -9 10 l-14 35 -1 -30 c-1 -17 -6 -36 -13 -43 -9 -9 -9 -15
0 -24 9 -9 12 -7 12 11 0 12 4 20 9 17 5 -3 7 -15 4 -26 -4 -15 -11 -19 -24
-15 -16 5 -19 1 -18 -22 1 -15 3 -20 6 -11 4 18 43 21 43 3 0 -5 -7 -23 -15
-38 -8 -15 -10 -25 -5 -22 14 9 12 -6 -6 -40 -9 -16 -18 -57 -21 -90 l-5 -60
47 45 47 45 -30 -50 c-17 -27 -27 -52 -21 -53 5 -2 -1 -19 -15 -37 -20 -26
-22 -32 -9 -31 25 2 26 -21 3 -44 -12 -12 -23 -34 -25 -48 -2 -15 -4 -29 -5
-32 0 -3 -8 6 -16 20 -10 17 -13 18 -8 5 3 -11 9 -30 11 -43 4 -17 9 -20 18
-12 11 9 12 6 8 -12 -4 -18 -2 -20 6 -8 15 22 22 8 8 -20 -18 -34 -35 -36 -30
-3 l5 28 -20 -24 c-14 -18 -21 -20 -24 -10 -3 8 -1 22 4 32 7 13 6 18 -4 16
-40 -5 -54 21 -20 40 11 7 12 10 3 11 -8 0 -11 6 -7 18 6 16 5 16 -7 0 -8 -10
-17 -15 -20 -12 -3 3 -3 -3 0 -14 2 -11 0 -22 -5 -26 -6 -3 -10 9 -10 29 0 20
-6 42 -12 50 -7 9 -10 27 -7 44 3 15 1 33 -4 38 -7 7 -7 17 2 30 9 15 9 28 1
52 -11 32 -5 40 17 19 10 -11 12 -9 9 7 -2 12 -13 21 -26 23 -15 2 -22 10 -22
24 0 12 -3 19 -6 15 -3 -3 -6 -37 -5 -76 0 -43 -4 -71 -10 -71 -6 0 -7 -5 -4
-10 4 -6 -3 -6 -18 1 -27 12 -27 40 0 70 10 12 11 18 2 21 -6 2 -12 22 -14 43
-1 22 -5 56 -9 75 -5 26 -4 31 3 20 11 -16 11 -11 -5 85 -5 33 -8 36 -14 20
-5 -11 -6 -36 -3 -57 4 -29 1 -38 -15 -47 -28 -15 -27 -15 -27 18 -1 16 2 28
6 25 4 -2 9 4 12 14 2 9 8 26 13 37 7 17 6 18 -8 7 -14 -11 -17 -8 -23 27 -4
22 -4 49 -1 59 4 11 0 24 -9 32 -13 11 -15 8 -15 -18 0 -17 -4 -32 -9 -34 -5
-1 -11 -27 -14 -56 -5 -46 -4 -52 9 -41 8 6 17 9 21 6 8 -9 -17 -38 -28 -31
-5 3 -9 0 -9 -7 0 -20 -29 24 -30 44 0 14 -5 16 -25 11 -15 -4 -25 -2 -25 5 0
6 5 11 10 11 6 0 10 5 10 11 0 5 -4 8 -9 5 -4 -3 -6 6 -3 21 3 16 1 24 -5 20
-6 -4 -16 0 -22 7 -8 10 -9 16 -2 21 7 4 7 11 -2 19 -10 12 -13 10 -20 -8 -6
-16 -3 -25 14 -39 21 -17 21 -18 4 -37 -24 -26 -35 -25 -33 3 1 12 -4 39 -11
59 -7 21 -9 43 -5 49 4 8 3 9 -5 5 -6 -4 -20 -2 -29 6 -15 11 -16 11 -4 -3 9
-12 10 -24 2 -43 -10 -28 -30 -27 -30 0 0 8 -4 12 -10 9 -5 -3 -10 3 -10 14 0
12 -4 21 -10 21 -5 0 -7 7 -4 15 4 9 0 15 -10 15 -9 0 -16 3 -17 8 -6 83 -5
212 2 201 7 -11 9 -8 9 9 0 26 -15 29 -29 5 -8 -14 -10 -11 -7 17 3 19 8 44
12 54 5 14 4 17 -4 12 -14 -8 -15 71 -4 267 4 64 4 117 0 117 -13 0 -18 -40
-23 -170 -2 -69 -8 -146 -13 -172 -5 -26 -7 -64 -5 -84 2 -21 -1 -40 -6 -43
-6 -4 -12 -47 -14 -96 -4 -76 -2 -94 14 -116 14 -20 15 -29 7 -37 -8 -8 -8
-12 -1 -12 6 0 9 -19 6 -48 -2 -27 3 -81 12 -121 8 -40 13 -77 10 -81 -8 -12
43 -165 72 -217 13 -23 20 -48 17 -56 -2 -7 2 -20 11 -27 8 -7 15 -21 15 -31
0 -11 3 -19 8 -19 12 0 34 -41 38 -73 2 -17 7 -33 11 -36 18 -13 68 -110 65
-123 -1 -5 3 -8 8 -8 6 0 10 -10 10 -21 0 -13 27 -48 70 -90 38 -38 77 -80 86
-94 9 -14 20 -22 25 -19 5 3 9 0 9 -7 0 -6 11 -22 25 -35 14 -13 25 -32 25
-44 0 -11 6 -19 13 -17 6 1 11 -4 10 -10 -2 -7 4 -13 12 -13 8 0 15 -4 15 -10
0 -5 9 -10 20 -10 11 0 20 -4 20 -10 0 -5 5 -10 11 -10 18 0 89 -73 89 -91 0
-19 -26 -30 -185 -78 -238 -72 -347 -100 -473 -121 -66 -11 -306 -87 -352
-111 -19 -10 -57 -25 -85 -34 -27 -9 -63 -22 -80 -30 -16 -7 -59 -22 -95 -33
-181 -58 -287 -101 -453 -182 -100 -49 -254 -118 -343 -154 -89 -35 -210 -89
-270 -119 -60 -29 -143 -69 -184 -87 -41 -19 -88 -46 -105 -61 -16 -15 -53
-38 -82 -53 -28 -14 -80 -53 -115 -87 -34 -34 -99 -90 -143 -125 -44 -35 -96
-77 -115 -93 -34 -28 -86 -68 -180 -139 -25 -18 -80 -64 -123 -100 l-77 -67 0
-512 0 -513 4675 0 4675 0 0 608 0 607 -52 41 c-29 23 -72 58 -95 78 -22 20
-59 49 -80 64 -22 15 -59 42 -84 60 -57 43 -239 162 -355 232 -70 42 -129 91
-246 205 -175 171 -295 270 -453 375 -60 40 -121 80 -135 89 -14 9 -56 32 -95
51 -126 60 -151 78 -265 192 -52 52 -113 108 -135 124 -66 50 -145 95 -156 88
-6 -3 -7 -30 -3 -67 4 -34 7 -71 7 -82 -4 -122 -7 -156 -20 -190 -28 -71 -43
-104 -53 -110 -6 -3 -10 -15 -10 -26 0 -23 -6 -24 -27 -4 -14 14 -17 14 -29
-2 -9 -12 -13 -14 -14 -5 0 9 -7 11 -22 7 -17 -6 -20 -4 -15 9 4 10 3 15 -3
11 -6 -3 -10 1 -10 9 0 9 5 16 10 16 6 0 10 8 10 18 0 14 2 15 10 2 5 -8 10
-10 10 -4 0 5 -7 19 -15 30 -14 19 -15 19 -21 -3 -3 -13 -10 -23 -15 -23 -16
0 -9 21 16 48 14 15 25 30 25 34 0 14 -20 8 -26 -7 -4 -9 -19 -15 -36 -15 -20
0 -28 4 -25 13 19 47 20 50 9 43 -19 -11 -14 13 7 40 12 15 18 35 15 49 -2 13
0 27 6 30 5 3 10 14 10 23 0 10 -11 1 -25 -23 -14 -22 -23 -46 -20 -52 2 -7
-2 -13 -9 -13 -8 0 -16 -10 -20 -23 -3 -13 -15 -34 -26 -47 -23 -27 -28 -14
-5 16 16 20 55 102 55 113 0 3 -7 -2 -14 -12 -12 -15 -18 -16 -35 -8 -21 12
-30 32 -36 81 -4 26 -1 30 20 30 30 0 34 25 5 33 -13 3 -24 -3 -35 -20 -9 -14
-19 -22 -22 -20 -6 7 16 50 31 59 8 5 7 8 -1 8 -7 0 -13 4 -13 9 0 10 19 9 38
-2 7 -5 12 -3 12 7 0 9 -7 16 -15 16 -8 0 -15 5 -15 11 0 5 4 8 9 5 5 -3 8 2
7 12 -1 11 5 16 16 14 10 -2 28 3 40 9 l23 13 -25 6 c-14 4 -29 2 -33 -4 -6
-8 -10 -7 -14 2 -6 16 -26 16 -21 0 7 -19 -19 -40 -44 -36 -26 3 -38 16 -38
38 1 12 4 11 15 -4 7 -10 20 -16 27 -13 10 4 10 6 1 6 -7 1 -13 6 -13 12 0 6
9 9 20 6 25 -6 25 -2 0 25 -15 16 -17 25 -9 32 8 8 13 7 16 -1 3 -7 9 -13 14
-13 15 0 10 22 -8 35 -16 12 -9 40 8 30 5 -4 9 -1 9 4 0 6 -4 11 -9 11 -5 0
-7 9 -4 21 4 16 8 18 14 7 7 -10 10 -8 15 9 4 13 10 20 15 17 5 -3 8 5 6 18
-1 15 3 22 11 20 9 -2 11 4 7 18 -4 14 -2 20 9 20 10 0 13 6 10 15 -4 8 -1 22
6 31 10 11 10 18 2 26 -8 8 -7 14 1 24 26 29 32 40 46 79 21 63 30 69 58 44
22 -21 34 -14 13 7 -11 11 -16 106 -6 122 13 21 26 13 27 -15 0 -24 1 -25 8
-8 5 11 3 28 -3 38 -9 15 -7 22 12 37 24 20 42 80 23 80 -6 0 -11 -11 -11 -25
0 -14 -4 -25 -10 -25 -5 0 -10 5 -10 12 0 14 42 78 51 78 3 0 4 11 2 24 -3 15
3 36 15 54 28 38 36 77 22 99 -10 15 -11 13 -6 -14 4 -26 2 -31 -10 -26 -12 4
-14 14 -10 36 4 17 11 34 16 37 17 11 30 111 27 207 -2 51 1 87 5 80 4 -7 8 5
8 28 0 22 5 47 10 55 7 11 10 6 10 -21 0 -31 5 -38 39 -57 62 -35 165 -26 167
14 0 14 -4 20 -13 17 -19 -7 -16 0 12 33 14 16 25 32 25 36 0 4 6 5 14 2 7 -3
16 3 19 13 4 10 15 29 27 43 21 27 31 123 16 170 -5 18 -4 21 2 11 8 -11 14
-6 26 24 9 20 16 43 16 49 0 6 7 29 15 52 12 37 40 207 67 419 5 44 11 145 11
225 2 119 -1 155 -17 200 -10 30 -22 60 -26 65 -4 6 -6 19 -4 29 4 30 -67 94
-113 101 -74 13 -72 11 -59 55 6 21 15 42 19 46 4 4 7 22 7 40 0 38 9 66 19
59 4 -2 5 10 3 27 -3 19 3 44 18 69 13 25 22 57 22 84 0 33 4 45 14 45 12 0
12 5 -1 31 -9 17 -13 34 -9 37 4 4 9 2 11 -4 2 -6 10 -20 18 -30 13 -17 13
-13 0 31 -8 28 -14 59 -14 70 0 11 -1 29 -3 40 -2 13 2 19 11 17 11 -2 12 0 4
10 -13 17 -25 87 -27 161 -2 57 7 70 32 45 19 -19 14 1 -9 33 -11 16 -16 29
-10 29 6 0 11 -5 11 -12 0 -9 3 -9 11 -1 9 9 7 16 -5 29 -10 9 -25 28 -33 41
-14 21 -14 26 -3 33 11 7 11 11 1 24 -8 9 -15 30 -17 47 -3 27 -2 30 11 19 18
-15 19 -7 5 21 -8 14 -7 19 3 19 16 0 16 35 -1 52 -7 7 -12 20 -12 30 0 10 -4
18 -9 18 -14 0 -26 83 -12 88 6 2 11 12 11 23 0 10 5 19 10 19 7 0 8 6 2 16
-5 9 -7 25 -5 35 3 11 0 19 -7 19 -10 0 -10 3 -1 14 8 10 9 16 1 21 -5 3 -10
3 -10 0 0 -20 -40 37 -44 61 -2 16 -7 37 -11 47 -5 11 -1 25 10 37 16 18 16
20 1 26 -9 3 -13 10 -10 15 3 6 -2 21 -11 35 -9 14 -14 32 -11 40 5 13 -6 19
-27 15 -5 -1 -4 6 1 15 6 11 6 29 1 48 -5 17 -6 44 -3 60 5 24 3 28 -10 23
-13 -5 -16 0 -16 27 0 19 -7 39 -17 47 -12 10 -15 10 -9 1 9 -15 -3 -77 -12
-67 -4 4 -7 12 -7 18 0 7 -7 12 -15 12 -11 0 -14 9 -12 36 2 21 -1 40 -7 44
-6 3 -11 22 -11 41 0 19 -4 34 -10 34 -5 0 -10 11 -10 25 0 33 -28 103 -57
142 -12 17 -23 34 -23 37 0 3 -14 25 -30 49 -16 25 -30 50 -30 56 0 6 -7 11
-15 11 -9 0 -18 7 -21 15 -4 8 -10 13 -14 10 -10 -6 -97 81 -148 148 -20 26
-44 47 -53 47 -10 0 -21 9 -24 20 -3 11 -13 20 -20 20 -8 0 -18 7 -22 15 -5 8
-39 39 -76 70 -46 38 -67 50 -67 39 0 -12 -11 -7 -39 19 -42 38 -77 60 -101
63 -8 2 -21 12 -29 23 -7 12 -20 21 -27 21 -8 0 -14 5 -14 12 0 6 -3 9 -6 6
-3 -3 -16 4 -30 17 -14 13 -54 37 -89 55 -35 18 -74 40 -86 51 -12 10 -28 19
-34 19 -7 0 -48 20 -91 44 -44 23 -106 55 -139 70 -33 15 -78 37 -100 49 -64
33 -64 33 -180 79 -68 27 -122 42 -141 40 -19 -2 -38 3 -47 12 -16 17 -67 40
-79 38 -5 -1 -8 4 -8 12 0 18 -29 29 -44 17 -7 -6 -29 -6 -56 -1 -25 5 -83 16
-130 25 -47 9 -96 24 -110 33 -45 30 -115 62 -135 61 -11 0 -38 -6 -60 -13z
m838 -3407 c28 -7 37 -15 33 -25 -4 -11 -1 -14 12 -9 11 3 34 -2 53 -10 28
-13 29 -15 7 -11 -14 3 -34 9 -44 13 -11 4 -15 3 -10 -5 6 -10 -106 -9 -177 3
-15 3 -42 -2 -60 -9 -51 -21 -102 -36 -125 -36 -12 0 -22 -4 -22 -8 0 -16 -78
-34 -99 -23 -16 9 -18 8 -15 -7 5 -21 -56 -55 -83 -46 -14 5 -15 4 -4 -4 11
-8 8 -13 -15 -28 -16 -10 -44 -31 -62 -47 -35 -29 -57 -31 -57 -6 0 8 -3 16
-7 19 -11 8 4 24 36 38 23 10 31 10 44 0 9 -7 13 -8 9 -2 -3 6 5 21 18 32 14
12 25 26 25 32 0 5 7 10 15 10 8 0 15 3 15 8 0 4 25 23 55 42 30 19 54 40 55
45 0 6 4 4 8 -3 5 -7 16 -10 25 -6 9 3 14 11 11 16 -4 6 -1 8 7 6 8 -3 22 -1
31 4 10 5 37 11 60 14 24 4 45 8 47 10 9 9 178 3 214 -7z m1807 -182 c0 -7
-14 -21 -30 -31 -45 -26 -116 -133 -195 -294 -38 -78 -73 -142 -78 -142 -5 0
-2 11 7 25 27 41 18 75 -10 38 -14 -20 -31 -12 -18 9 5 7 10 31 11 53 2 22 8
51 15 65 14 29 64 90 75 92 5 1 17 13 27 27 33 44 36 46 24 13 -7 -18 -16 -32
-20 -32 -4 0 -8 -5 -8 -12 0 -6 -7 -20 -17 -30 -9 -10 -13 -18 -10 -18 9 0 57
50 57 60 0 5 6 15 13 22 6 7 27 36 46 63 18 28 49 62 69 78 40 31 42 32 42 14z
m-3900 -3130 c0 -11 5 -15 11 -11 7 4 9 -1 7 -12 -2 -11 -10 -18 -16 -16 -15
3 -16 -54 -2 -63 6 -3 10 -15 10 -26 0 -10 5 -19 11 -19 7 0 9 -10 5 -26 -5
-20 -4 -25 6 -21 37 15 53 19 39 9 -11 -8 -9 -11 8 -17 11 -3 21 -14 21 -22 0
-9 6 -24 14 -32 8 -9 26 -38 42 -66 15 -27 40 -66 56 -85 15 -19 28 -43 28
-53 0 -10 6 -20 13 -23 8 -3 43 -33 79 -67 58 -54 106 -96 145 -127 38 -31
138 -90 151 -90 8 0 45 -14 81 -31 36 -18 82 -36 101 -41 55 -15 181 -29 228
-26 45 3 49 0 30 -21 -11 -11 -10 -13 5 -7 10 3 28 6 40 7 12 0 16 3 10 6 -12
4 -19 43 -8 43 3 0 14 -9 25 -20 20 -20 47 -18 62 4 5 8 11 7 19 -1 9 -9 18
-9 32 -2 11 6 38 8 63 4 26 -3 44 -2 44 3 0 5 9 12 20 15 13 3 20 0 20 -8 0
-11 17 -13 78 -9 112 7 150 12 173 25 11 6 23 9 25 6 3 -2 -11 -12 -30 -21
-25 -12 -33 -21 -29 -32 5 -15 7 -15 15 0 5 9 16 16 25 16 9 0 21 7 28 17 7 9
31 18 56 20 24 3 49 9 55 14 15 13 26 -1 13 -18 -9 -10 -7 -13 10 -13 12 0 24
7 28 16 3 8 12 13 19 10 8 -3 14 1 14 9 0 8 -6 15 -12 16 -8 0 -7 3 2 6 8 4
23 15 32 26 9 10 22 17 29 15 8 -3 6 -10 -7 -22 -17 -18 -17 -18 17 -11 19 4
31 4 27 0 -4 -5 -3 -14 3 -22 6 -7 8 -13 3 -14 -42 -3 -69 -10 -78 -20 -8 -8
-3 -9 22 -4 20 4 32 3 32 -4 0 -6 -7 -11 -15 -11 -8 0 -15 -6 -15 -14 0 -22
-47 -26 -66 -4 -11 12 -24 16 -37 12 -11 -4 -23 -1 -28 7 -7 11 -9 11 -9 1 0
-7 -4 -11 -8 -8 -4 2 -18 -4 -32 -14 l-24 -18 27 5 c35 7 35 -13 0 -22 -14 -3
-36 -13 -47 -21 -18 -12 -19 -14 -3 -14 10 0 27 5 38 10 15 8 19 7 19 -5 0 -9
-9 -15 -24 -15 -14 0 -27 -4 -30 -9 -3 -4 -23 -11 -45 -15 -22 -3 -41 -11 -43
-16 -2 -6 -13 -12 -26 -13 -12 0 -18 -5 -13 -10 4 -4 21 -3 37 4 16 6 38 15
49 20 11 4 39 11 62 14 23 4 44 12 46 19 3 8 37 21 76 31 39 9 74 21 77 26 3
5 14 9 25 9 10 0 19 4 19 8 0 5 26 16 57 26 31 10 80 35 107 56 28 20 68 44
89 54 20 9 37 24 37 32 0 10 5 12 13 7 23 -14 47 -13 47 2 0 8 7 15 15 15 8 0
15 5 15 10 0 6 6 10 13 9 29 -4 56 2 69 14 26 25 88 58 98 52 6 -3 13 0 16 8
7 18 46 30 69 21 9 -4 14 -13 11 -20 -7 -19 18 -18 34 1 7 8 18 15 25 15 7 0
18 7 25 15 10 12 10 15 -3 15 -8 0 -18 6 -20 13 -3 7 -6 4 -6 -6 -1 -19 -22
-19 -28 0 -5 14 43 26 69 17 11 -3 18 -2 15 3 -3 5 3 9 13 9 19 0 19 -1 0 -21
-29 -30 -25 -38 10 -20 34 17 37 27 15 49 -8 8 -15 16 -15 19 0 2 7 4 15 4 8
0 15 -9 15 -20 0 -20 0 -20 20 -2 12 11 27 20 35 21 20 3 19 -25 0 -32 -17 -7
-21 -34 -5 -34 6 0 10 -4 10 -10 0 -5 -7 -7 -15 -4 -9 4 -15 0 -15 -9 0 -19
22 -35 28 -19 5 16 32 3 32 -16 0 -14 2 -14 18 1 14 14 14 19 4 26 -10 6 -9
10 7 14 14 3 21 0 21 -10 0 -8 3 -12 8 -10 4 3 14 -2 22 -11 13 -14 12 -15 -3
-9 -11 4 -17 1 -17 -8 0 -8 6 -15 13 -15 7 -1 5 -6 -5 -14 -23 -17 -23 -22 2
-29 11 -3 20 0 20 6 0 6 6 3 13 -5 10 -14 14 -15 24 -3 10 10 9 16 -2 25 -19
16 -19 31 0 24 8 -4 12 -10 9 -15 -3 -5 7 -9 23 -9 20 0 24 -3 14 -9 -12 -8
-11 -15 7 -43 12 -18 22 -28 22 -23 0 6 9 11 19 11 11 0 19 -3 19 -6 -1 -18 5
-18 29 -3 27 18 27 10 0 -25 -14 -18 -16 -51 -5 -58 5 -3 17 1 27 11 18 15 19
14 17 -14 -1 -31 -26 -69 -26 -41 0 11 -3 11 -12 2 -10 -10 -10 -15 2 -22 11
-7 10 -12 -11 -29 -13 -11 -19 -20 -12 -21 7 0 10 -7 6 -16 -3 -8 -12 -13 -20
-10 -11 4 -11 1 -3 -14 7 -14 7 -20 0 -20 -5 0 -10 -7 -10 -15 0 -7 -6 -18
-13 -22 -7 -4 -28 -28 -47 -53 -50 -65 -69 -88 -120 -143 -61 -66 -265 -267
-315 -308 -22 -19 -42 -37 -45 -40 -3 -3 -43 -34 -90 -68 -47 -34 -94 -70
-105 -79 -40 -32 -221 -154 -311 -209 -28 -17 -187 -96 -279 -138 -134 -62
-353 -130 -448 -140 -18 -2 -55 -8 -83 -14 -144 -29 -439 -22 -594 13 -50 12
-234 82 -278 105 -9 6 -42 22 -72 36 -105 50 -292 207 -325 272 -11 21 -24 44
-30 52 -5 7 -26 57 -46 110 -20 53 -53 136 -73 184 -122 290 -139 638 -45 927
38 115 119 276 166 327 l35 38 0 105 c-1 95 1 103 13 80 8 -14 14 -33 15 -43z
m566 -353 c19 -15 18 -15 -3 -11 -15 4 -23 0 -23 -9 0 -15 4 -16 60 -18 26 -1
34 -5 32 -17 -1 -12 6 -16 29 -17 17 0 34 -4 37 -7 9 -9 -20 -25 -32 -18 -6 4
-19 7 -30 8 -12 1 -32 5 -46 9 -14 4 -3 -4 23 -18 49 -27 83 -34 72 -16 -3 5
4 10 17 10 13 1 36 1 52 1 16 1 32 -4 36 -11 4 -7 17 -10 31 -6 17 4 15 2 -6
-8 -21 -10 -34 -11 -42 -4 -10 8 -13 6 -13 -6 0 -18 41 -31 66 -22 9 4 22 2
29 -4 9 -8 14 -6 19 5 4 11 17 15 46 13 22 -1 40 -6 40 -10 0 -4 10 -8 23 -9
l22 0 -22 -9 c-23 -9 -29 -21 -16 -33 3 -4 15 0 25 10 10 9 18 13 18 8 0 -4 7
-2 15 5 11 9 15 9 15 1 0 -7 4 -9 10 -6 5 3 31 8 57 11 35 4 44 2 33 -5 -8 -6
-30 -11 -47 -11 -18 0 -33 -4 -33 -10 0 -15 50 -24 63 -11 14 14 47 14 47 1 0
-6 -6 -10 -14 -8 -8 2 -15 -1 -15 -7 0 -5 7 -9 16 -7 10 2 12 -1 7 -9 -4 -7 1
-18 12 -27 13 -10 15 -16 7 -19 -7 -2 -23 -14 -35 -25 -13 -11 -16 -16 -8 -11
16 8 22 10 45 12 9 0 20 11 25 24 7 17 9 18 9 5 1 -11 9 -18 21 -18 14 0 20
-7 20 -21 0 -11 5 -17 10 -14 6 3 10 -1 10 -9 0 -9 -6 -16 -12 -17 -7 -1 -40
-2 -73 -4 -32 -1 -61 -8 -63 -14 -2 -6 -20 -11 -39 -11 -32 0 -35 2 -31 25 3
14 1 25 -3 25 -5 0 -9 -6 -9 -14 0 -8 -11 -17 -24 -20 -25 -6 -56 1 -56 13 0
11 -62 4 -69 -8 -4 -6 -12 -7 -21 -1 -10 7 -11 10 -2 10 6 0 12 5 12 11 0 6
-9 8 -21 4 -14 -5 -19 -3 -15 3 3 6 2 13 -3 17 -6 3 -8 13 -4 23 3 11 0 9 -11
-5 -10 -13 -27 -23 -39 -22 -12 0 -16 3 -9 6 23 9 2 22 -23 13 -20 -7 -29 -4
-55 20 -18 17 -37 30 -42 30 -6 0 -4 7 3 17 11 13 11 17 2 20 -7 3 -13 11 -13
19 0 16 -26 19 -35 4 -5 -8 -11 -7 -21 1 -21 17 -17 31 5 19 17 -8 20 -7 18
10 -1 21 -23 35 -32 20 -4 -6 -13 -10 -22 -10 -14 0 -15 2 -1 18 15 17 14 47
-2 37 -11 -7 -80 26 -80 37 0 4 7 8 16 8 9 0 12 -5 8 -12 -4 -7 -4 -10 1 -6 4
4 16 3 26 -3 16 -8 19 -6 19 12 0 18 -2 19 -15 9 -13 -11 -15 -6 -15 34 0 50
6 55 36 30z m-160 -199 c4 -9 13 -13 23 -10 16 5 38 -8 81 -45 38 -33 149 -90
175 -90 10 0 30 -11 46 -25 16 -13 45 -27 64 -31 20 -3 38 -10 41 -15 3 -5 16
-9 29 -9 29 0 37 -11 23 -30 -8 -12 -9 -12 -4 3 6 18 -18 25 -29 7 -4 -6 -12
-4 -21 5 -9 8 -21 15 -27 15 -7 0 -6 -4 3 -10 8 -5 12 -12 8 -15 -7 -8 -57 16
-57 28 -1 4 -1 12 -1 17 0 6 -9 10 -20 10 -11 0 -20 7 -20 15 0 17 -31 20 -47
4 -8 -8 -23 -4 -54 13 -24 12 -48 29 -52 36 -4 6 -13 12 -19 12 -6 0 -19 9
-29 21 -10 11 -23 18 -28 14 -6 -3 -11 1 -11 10 0 9 -4 14 -9 10 -5 -3 -12 4
-16 15 -5 15 -12 19 -25 15 -18 -6 -50 17 -50 36 0 15 20 10 26 -6z"/>
<path d="M3760 6280 c17 -11 19 -11 -60 -14 -25 -1 -55 -8 -67 -14 -13 -8 -38
-10 -61 -6 -24 4 -48 1 -62 -6 -28 -15 -92 -22 -85 -9 4 5 1 9 -5 9 -6 0 -8 5
-4 11 4 8 0 8 -15 0 -11 -7 -21 -15 -21 -19 0 -4 -9 -13 -21 -20 -12 -8 -18
-9 -15 -4 9 15 -20 22 -34 9 -10 -10 -10 -7 -1 10 10 19 8 24 -9 33 -12 6 -28
9 -38 6 -9 -3 -30 -7 -45 -10 -33 -6 -112 -67 -128 -99 -6 -12 -26 -36 -44
-53 -36 -35 -49 -61 -35 -69 15 -10 12 -23 -12 -45 -12 -11 -18 -23 -15 -27 4
-3 7 -2 7 4 0 6 9 13 20 16 22 6 28 -8 8 -16 -10 -4 -9 -8 2 -16 13 -9 13 -11
-2 -11 -17 0 -17 -2 0 -35 15 -30 21 -35 52 -34 19 1 48 -3 63 -10 44 -17 56
-13 17 7 -41 20 -44 33 -12 47 12 5 22 15 22 22 0 7 4 13 9 13 5 0 7 -8 5 -17
-4 -16 3 -18 55 -18 57 -1 59 0 44 17 -8 10 -19 16 -22 13 -4 -2 -7 5 -7 16 0
24 21 29 109 26 51 -2 66 1 63 10 -3 8 3 13 17 14 12 0 38 2 57 3 19 1 42 -2
50 -6 8 -4 32 -14 53 -22 40 -16 52 -6 15 12 -21 9 -19 10 14 8 20 -1 40 -5
44 -9 4 -4 17 -7 28 -7 12 0 34 -7 50 -15 33 -17 39 -19 32 -6 -4 5 3 7 15 4
15 -4 22 0 26 15 4 18 9 20 25 11 11 -6 26 -8 33 -5 8 3 17 1 20 -4 10 -16 28
-11 22 5 -4 8 -2 17 3 20 6 4 6 13 0 25 -6 11 -15 29 -20 40 -7 13 -7 20 0 20
5 0 16 -13 25 -29 8 -17 21 -33 27 -37 10 -6 10 -4 0 8 -8 10 -9 19 -3 22 5 4
19 -7 31 -23 13 -19 26 -28 35 -24 8 3 15 0 15 -6 0 -5 10 -16 23 -22 20 -11
21 -11 8 5 -12 15 -12 16 5 10 12 -4 6 6 -16 27 -22 21 -28 30 -15 25 15 -6
13 0 -9 23 -17 17 -26 31 -22 31 9 0 31 -18 58 -47 12 -13 25 -23 29 -23 11 0
-2 43 -20 65 -11 14 -7 12 12 -4 15 -14 27 -20 27 -15 -1 16 -59 74 -75 74
-21 0 -19 20 3 20 10 1 1 9 -22 21 -30 16 -36 23 -25 30 11 7 11 9 1 9 -7 0
-11 4 -8 9 3 5 -3 11 -14 14 -11 3 -23 1 -26 -4 -3 -5 -11 -9 -17 -9 -8 0 -8
3 1 9 9 5 1 10 -24 14 -21 4 -41 2 -44 -3 -3 -5 -22 -3 -45 5 -49 17 -78 20
-55 5z"/>
<path d="M3679 5799 c-109 -9 -187 -29 -272 -69 -69 -33 -121 -76 -111 -91 3
-5 -1 -9 -8 -9 -17 0 -50 -38 -44 -49 3 -5 18 -7 34 -5 39 4 39 -25 0 -40 -40
-15 -38 -46 5 -47 17 -1 35 -1 40 0 4 0 7 -3 7 -9 0 -6 3 -9 8 -9 20 3 32 -3
32 -16 0 -18 28 -16 48 3 7 6 28 13 45 13 l32 2 -35 7 c-33 7 -33 7 -6 9 25 1
27 3 15 17 -8 10 -9 18 -3 22 5 4 11 20 12 37 1 16 13 41 27 55 26 27 147 76
163 66 6 -3 3 -25 -6 -51 -27 -83 16 -167 93 -183 51 -10 146 -7 208 7 33 8
54 8 67 1 13 -7 21 -7 26 2 4 6 3 8 -4 4 -6 -3 -16 -1 -24 6 -7 7 -19 13 -25
13 -18 0 -18 3 -4 63 7 29 11 62 8 72 -3 11 -4 20 -3 20 11 0 66 -33 66 -39 0
-4 12 -14 26 -21 22 -12 25 -20 22 -52 -4 -44 3 -48 22 -13 16 30 34 33 25 5
-5 -16 -2 -20 19 -20 17 0 26 5 26 16 0 14 3 14 18 4 9 -7 -13 17 -50 54 -37
36 -72 66 -78 66 -5 0 -10 5 -10 10 0 14 16 12 32 -3 7 -7 27 -22 43 -32 l30
-19 -24 27 c-14 15 -20 27 -14 27 5 0 18 -9 29 -21 10 -11 28 -26 39 -31 20
-11 20 -11 1 10 -26 30 -4 37 57 18 36 -11 46 -11 38 -2 -6 7 -8 15 -6 18 10
9 -60 56 -99 66 -21 6 -43 18 -50 26 -6 8 -58 26 -116 41 -114 30 -224 37
-371 24z m199 -31 c35 -10 66 -26 69 -34 3 -7 8 -12 12 -9 9 5 75 -34 68 -41
-3 -3 -13 -1 -24 5 -22 12 -54 24 -68 26 -5 1 -22 7 -37 13 -15 6 -34 9 -42 6
-7 -3 -16 2 -20 12 -5 13 -9 14 -21 4 -12 -10 -18 -10 -30 0 -12 10 -15 9 -15
-5 0 -12 -4 -15 -12 -8 -7 5 -23 8 -35 7 -13 0 -23 2 -23 6 0 5 -19 -1 -42
-12 -36 -17 -49 -19 -81 -11 -34 9 -37 9 -32 -8 7 -21 -24 -29 -67 -18 -18 5
-25 4 -22 -4 6 -19 -10 -36 -36 -39 -16 -2 -25 2 -25 11 0 19 78 73 112 76 15
1 42 8 58 15 17 6 54 13 83 15 30 2 56 6 59 9 12 12 111 3 171 -16z"/>
<path d="M6600 5000 c-8 -5 -10 -10 -4 -10 7 0 14 -7 18 -15 4 -12 0 -12 -21
2 -16 11 -24 13 -19 5 4 -7 1 -23 -8 -37 -14 -20 -14 -28 -4 -45 7 -11 16 -20
20 -20 13 0 9 12 -9 26 -15 10 -16 15 -5 25 7 8 12 9 12 2 0 -6 7 -14 16 -17
8 -3 12 -2 9 4 -10 16 11 11 25 -5 8 -9 17 -12 22 -7 12 12 -2 43 -16 35 -6
-3 -7 -2 -3 3 5 5 14 9 20 9 5 0 12 6 15 14 3 8 0 11 -7 7 -6 -4 -11 -1 -11 8
0 10 6 13 15 10 8 -4 15 -10 15 -16 0 -5 5 -6 10 -3 6 3 10 2 10 -4 0 -5 -5
-13 -11 -17 -6 -3 -8 -16 -5 -28 7 -28 -42 -70 -65 -55 -12 7 -12 9 0 9 8 0
12 3 8 6 -14 14 -26 -8 -14 -26 9 -16 9 -24 -1 -40 -14 -22 -3 -27 17 -7 7 6
12 8 11 2 -5 -23 1 -30 25 -30 17 0 24 4 20 13 -3 8 -5 18 -5 24 0 6 -7 7 -15
4 -22 -8 -30 20 -12 39 20 20 33 20 17 0 -7 -9 -10 -18 -6 -22 3 -4 13 2 22
13 15 19 15 19 6 -1 -13 -29 -5 -43 22 -38 17 4 27 -1 35 -16 14 -25 33 -28
24 -4 -5 12 -3 14 7 8 8 -5 11 -4 6 3 -4 6 -14 8 -23 5 -11 -4 -14 -3 -9 5 4
7 1 15 -7 18 -9 3 -13 13 -10 25 5 20 6 20 20 -1 17 -24 33 -26 33 -4 0 10 -6
14 -15 10 -8 -3 -15 -1 -15 5 0 5 10 14 23 19 13 5 16 9 7 9 -9 1 -21 -4 -27
-10 -7 -7 -12 -6 -16 5 -4 11 -1 16 10 16 13 0 13 3 3 15 -9 11 -22 14 -42 10
-15 -4 -28 -2 -28 3 0 5 7 9 15 10 8 1 22 3 30 4 8 1 15 8 15 16 0 8 -6 12
-15 8 -9 -3 -20 3 -27 14 -17 27 -58 26 -65 0 -4 -16 -8 -18 -19 -9 -8 6 -11
15 -8 20 7 11 3 11 -16 -1z"/>
<path d="M4301 4113 c-6 -21 -11 -48 -11 -60 0 -17 -4 -21 -17 -17 -14 5 -15
4 -4 -4 7 -5 10 -15 7 -21 -4 -6 -2 -11 3 -11 6 0 11 -5 11 -11 0 -5 -4 -8 -9
-5 -4 3 -6 -6 -3 -19 6 -31 22 -33 22 -2 0 13 5 28 12 35 9 9 9 12 0 12 -7 0
-12 5 -12 11 0 6 7 8 16 5 8 -3 12 -2 9 3 -3 5 -1 12 4 15 5 4 12 -3 16 -13 3
-11 12 -18 18 -15 9 3 13 -6 12 -28 0 -18 -5 -32 -11 -31 -6 1 -11 -5 -11 -13
0 -12 4 -12 24 1 17 12 23 12 23 3 1 -9 4 -8 13 3 7 8 20 18 30 22 10 4 16 11
13 16 -3 4 8 21 25 36 25 21 28 29 18 36 -10 6 -20 1 -32 -14 -15 -20 -17 -20
-10 -2 3 11 12 24 20 28 14 9 18 47 5 47 -4 0 -20 -15 -36 -32 -18 -21 -31
-28 -33 -20 -3 8 -11 5 -24 -10 -15 -19 -18 -20 -19 -6 0 9 -6 18 -12 21 -10
3 -10 9 -1 25 10 16 9 21 -2 26 -14 5 -19 -7 -18 -41 1 -7 -3 -10 -8 -7 -5 3
-9 -3 -9 -12 0 -12 -3 -15 -10 -8 -12 12 -2 76 11 68 5 -3 6 2 3 10 -9 23 -12
20 -23 -21z"/>
</g>
</svg>
