<?xml version="1.0" encoding="utf-8"?>
<!-- Generator: Adobe Illustrator 24.1.0, SVG Export Plug-In . SVG Version: 6.00 Build 0)  -->
<svg version="1.1" id="Calque_1" xmlns="http://www.w3.org/2000/svg" xmlns:xlink="http://www.w3.org/1999/xlink" x="0px" y="0px"
	 viewBox="0 0 1190.55 841.89" style="enable-background:new 0 0 1190.55 841.89;" xml:space="preserve">
<style type="text/css">
	.st0{fill:#763D3B;}
</style>
<g>
	<path class="st0" d="M420.09,326.04c-3.6,6.18-11.25,28-26.43,28c-6.64,0-9.67-4.27-9.67-12.26c0-1.46,0.11-2.92,0.34-4.61
		c-3.71,7.98-9.33,16.76-18.11,16.76c-6.07,0-9.89-4.16-9.89-13.38c0-3.37,0.23-10.01,2.47-17.32
		c5.17-16.42,10.35-25.42,16.64-25.42c2.47,0,3.49,1.57,3.49,4.5c0,7.31-5.06,14.84-5.06,21.48c0,3.15,1.01,5.06,4.72,5.06
		c4.05,0,7.54-2.25,9.45-7.87l0.11-0.45c4.61-14.73,9.22-22.72,14.96-22.72c2.25,0,3.49,1.24,3.49,4.5c0,6.3-5.06,14.84-5.06,20.47
		c0,4.27,2.7,6.18,5.74,6.18c3.37,0,5.51-2.36,7.76-5.73C416.83,320.53,421.33,323.9,420.09,326.04z M369.71,282.96
		c0.45-5.96,4.5-7.65,9.45-7.65c4.84,0,8.77,1.69,8.21,7.65c-0.56,5.85-4.38,7.76-9.33,7.76
		C373.19,290.72,369.15,288.81,369.71,282.96z M392.65,282.96c0.45-5.96,4.5-7.65,9.45-7.65c4.84,0,8.66,1.69,8.21,7.65
		c-0.56,5.85-4.5,7.76-9.45,7.76C396.02,290.72,392.09,288.81,392.65,282.96z"/>
	<path class="st0" d="M411.32,345.83c0-5.28,0.56-13.38,3.71-22.6c4.61-13.83,9.22-25.42,13.72-25.42c2.58,0,3.48,2.03,3.48,4.27
		c0,3.82,2.47,5.74,6.07,2.14c4.16-4.05,8.66-6.41,13.61-6.41c5.51,0,8.66,3.04,9.78,7.08c0.34,1.46,1.13,1.91,2.81,0
		c4.27-4.72,9.11-7.31,14.51-7.31c8.77,0,12.03,4.72,12.03,10.35c0,5.96-3.6,9.56-3.6,15.18c0,3.94,1.69,5.85,5.51,5.85
		c3.37,0,5.51-2.36,7.76-5.73c1.8-2.7,6.3,0.67,5.06,2.81c-3.6,6.18-11.25,28-26.43,28c-7.2,0-9.67-5.51-9.67-11.92
		c0-8.55,4.73-16.08,4.73-20.69c0-2.59-1.69-3.94-4.27-3.94c-6.52,0-12.15,9.33-12.15,17.77c0,3.26,0.79,4.39,0.79,7.65
		c0,4.72-1.57,10.91-10.01,10.91c-5.17,0-9-2.36-9-9.78c0-8.55,5.62-16.2,5.62-21.93c0-3.04-1.69-4.39-4.27-4.39
		c-6.52,0-12.15,9.34-12.15,19.34v5.06c0,5.74-1.46,11.92-9.45,11.92C414.25,354.04,411.32,350.55,411.32,345.83z"/>
	<path class="st0" d="M529.87,337.62h-0.67c-4.5,9.11-11.13,16.42-19.12,16.42c-7.65,0-11.58-6.97-11.58-16.98
		c0-15.63,9.67-39.25,29.01-39.25c9,0,8.55,4.27,11.47,4.27c3.71,0,4.5-4.27,9.79-4.27c2.92,0,3.94,1.69,3.94,4.16
		c0,4.27-2.93,7.76-5.4,14.28c-2.25,4.72-3.15,8.44-3.15,11.7c0,5.96,3.26,9.11,8.55,9.11c9.11,0,8.32-8.88,12.82-8.88
		c3.37,0,5.51,5.17,5.51,11.58c0,10.79-5.96,24.97-21.93,24.97C534.14,364.72,528.41,353.02,529.87,337.62z M531.11,320.19
		c0-3.71-2.25-5.96-5.85-5.96c-5.85,0-9.56,5.51-9.56,10.46c0,3.82,2.14,6.07,5.62,6.07C527.17,330.76,531.11,324.91,531.11,320.19z
		"/>
	<path class="st0" d="M615.85,332.11c0-15.74,10.79-34.3,28.56-34.3c10.79,0,15.52,6.52,15.52,13.83c0,9.67-6.63,13.49-11.47,13.49
		c-3.94,0-5.85-1.69-5.85-3.15c0-1.91,2.59-2.36,2.59-6.41c0-2.02-1.24-3.94-4.61-3.94c-5.06,0-7.98,5.28-7.98,10.91
		c0,15.07,22.15,15.97,32.73,0.68c1.8-2.7,6.3,0.67,5.06,2.81c-9.89,18.33-21.93,28-35.09,28
		C621.81,354.04,615.85,343.8,615.85,332.11z"/>
	<path class="st0" d="M663.09,337.06c0-15.63,9.67-39.25,29.01-39.25c9,0,8.55,4.27,11.47,4.27c3.71,0,4.5-4.27,9.78-4.27
		c2.92,0,3.94,1.69,3.94,4.16c0,4.27-2.93,7.76-5.4,14.28c-3.83,8.21-2.59,12.71,2.36,12.71c3.82,0,6.63-2.14,8.88-5.73
		c1.69-2.7,6.19,0.67,5.06,2.81c-5.51,10.46-11.69,28-24.18,28c-7.76,0-11.02-7.08-9.67-16.42h-0.45
		c-4.5,9.11-11.25,16.42-19.23,16.42C667.02,354.04,663.09,347.07,663.09,337.06z M695.7,320.19c0-3.71-2.25-5.96-5.85-5.96
		c-5.85,0-9.56,5.51-9.56,10.46c0,3.82,2.14,6.07,5.62,6.07C691.77,330.76,695.7,324.91,695.7,320.19z"/>
	<path class="st0" d="M771.84,326.04c-3.15,6.52-12.37,27.89-33.29,27.89c-19.79,0-22.15-19.46-15.4-30.7l0.45-0.68
		c7.98-10.79,15.97-27.55,25.64-27.55c6.97,0,10.35,4.05,10.23,7.65c0.11,3.6-8.1,3.94-8.1,8.44c0,2.14,5.96,11.13,7.42,18.11
		c3.37-0.11,5.74-2.59,7.98-5.96C768.58,320.53,772.86,323.9,771.84,326.04z M742.27,322.55c0-2.7-0.9-5.51-2.47-8.55
		c-0.79-1.46-1.69-1.46-2.7,0c-2.81,4.16-6.3,8.77-8.88,12.03c0,2.7,2.59,4.72,6.3,4.72C739.45,330.76,742.27,327.16,742.27,322.55z
		"/>
	<path class="st0" d="M795.8,337.62h-0.67c-4.5,9.11-11.13,16.42-19.12,16.42c-7.65,0-11.58-6.97-11.58-16.98
		c0-15.63,9.67-39.25,29.01-39.25c9,0,8.55,4.27,11.47,4.27c3.71,0,4.5-4.27,9.78-4.27c2.92,0,3.94,1.69,3.94,4.16
		c0,4.27-2.93,7.76-5.4,14.28c-2.25,4.72-3.15,8.44-3.15,11.7c0,5.96,3.26,9.11,8.55,9.11c9.11,0,8.32-8.88,12.82-8.88
		c3.37,0,5.51,5.17,5.51,11.58c0,10.79-5.96,24.97-21.93,24.97C800.08,364.72,794.34,353.02,795.8,337.62z M797.04,320.19
		c0-3.71-2.25-5.96-5.85-5.96c-5.85,0-9.56,5.51-9.56,10.46c0,3.82,2.14,6.07,5.62,6.07C793.1,330.76,797.04,324.91,797.04,320.19z"
		/>
</g>
</svg>
